<mxfile host="65bd71144e">
    <diagram id="Lu83tjWo-Wz-DkkKe9Yt" name="第 1 页">
        <mxGraphModel dx="1331" dy="1161" grid="0" gridSize="10" guides="1" tooltips="1" connect="1" arrows="1" fold="1" page="0" pageScale="1" pageWidth="850" pageHeight="1100" math="0" shadow="0">
            <root>
                <mxCell id="0"/>
                <mxCell id="1" parent="0"/>
                <mxCell id="2" value="" style="shape=image;verticalLabelPosition=bottom;labelBackgroundColor=default;verticalAlign=top;aspect=fixed;imageAspect=0;image=data:image/png,iVBORw0KGgoAAAANSUhEUgAAAS0AAADqCAYAAAD3eRNWAAAgAElEQVR4nOy9eXRU153v+9lnqCqpNEtICMQ8GWxjG0yMbQZPwRhsY+Mpc+IM3Yk7uel0v5v0Wsl6/VZu1ut+Pdzu1blJOu4M3fEQO0k7bYPBA5g2xgPYZjTGGAuEAUkg0FCaajhn7/fHPufUoJKQZDuhQF/WoVR1pn323ue3f/NPSCmVEIIxjCEXSqng098GO+6DzqHBrj2GCwv+PMr9zNxv/cFbNYaCgRBiSILkExrDMMaI1hg+FAw11/x9Y0RrDENiOMRICPGBidYHOf+jJnhDtW049z7bs40R7JFhjGiNYdjIfPk+DJHww8Ifux357j+S/vljt78QkNlHxh+xHWMoYHwY3NWH1Y4/9v0zt8zfx/DRQIwp4scwXAwlxozNoTTOJS70fMQYpzWGMYwSgxHx0RKsMd3W8DBGtMYwhlHgo+Cmcq+XScTGCFoaY0RrDMPGmMijoZSit7cXKWXw3f/M/Hu0SCaT7N27l9dff52enh5grO8zMUa0xjAinCsK+D8WlFKkUikeeeQRpJQBx5WPK1JK4ThO1j4pZUDs/GNc181y4N2zZw8PPfQQW7ZsobOzM+v4fO35Q29/bFgX8gQcw+hxIc2bzBfVcRxefPFFvvOd73DRRRdRXV1NfX09hw4d4qqrruLo0aP09/djmibvv/8+rusSCoVYtmwZTU1NNDY2IqVk7ty5NDQ0sG3bNvr7+wmFQlx77bUYhsHjjz9ORUUFn/70p6mpqRmUWFyoC8iYn9YYxnAWZHJSqVSKHTt2kEqleOmll5gzZw5CCH7wgx/w+9//nscff5zq6mp6e3vZtGkTCxcu5LXXXuPyyy/nxz/+MclkkkQiweTJk/nWt77FD37wAxYuXMjevXupr6+nsbGR1157jaVLl7Jjxw5Wr14dRBycC1zOuYAx8XAMYxgGfI6mqKiIP//zPyccDvOd73yHu+66i2nTphGLxXjjjTfYsmULCxYsIB6PM2PGDL773e9i2zbt7e2sX7+eG2+8kZUrV3Lw4EG6u7vp7Ozkr//6rykpKWHfvn28+uqrnDp1iv379/Pyyy9nKfwH8wm70DDGaY1hDMNEEPtmWViWxfbt26moqODiiy/m05/+NH//939POBxm1qxZPPPMM3R2drJjxw6SySS2bdPQ0MCvf/1rpkyZwjXXXINhGCilAoV7VVUV3//+92lsbOTzn/88K1euvKCJ02AY47TGMIYRwrIs7rzzTl544QXefPNNAFatWsW+ffu44oorKCkpQSlFc3MzmzdvZu7cuVRVVfH1r3+d2tpaGhoaaGhooLS0lKVLl/L8888za9YsFixYgFKKyy+/nOrq6jFxcBAINdYzYxjDiNHf38+ZM2cIh8N0d3ezfft2nnzySb73ve8xd+5c/uEf/oH+/n6++MUvUldXh2maAMRiMRKJBOFwmPLycqSUnDp1isrKSoqLi1FK0dHRQTQaJRQKZd1zjOvSGBMPxzCGUaCoqIiGhgYA9u3bx3PPPceaNWu4+OKLAbjooosAmDRpUlaKn6qqqqzrmKbJxIkTg++Zx4zxE/kxxmmNYQwfEMlkEtM0s6x8UsoPJc/YGAZijGiNYQyjRKZjaaZLQr5wnNEQr9xXc4wAaoyJh2MYwwfEYKmBP6zrjiEbY5zWGMYwhoLCmMvDGMYwhoLCGNEawxjGUFAYI1pjGMMYCgpjingFChDo/wZT8CkUgj+iYtRrZ7qxMJSe1t+lVPrZBj7dmKJ3pBiuCnhMif7R4YImWqdOtbFv7z7AoLKyAgz9kisjO5GbQqGkQggDBRhpkoCf6UgA4gPaNPzT870YSoFSApRCGAKBQBjZL0fme2IAwjBwpcRQEC0pZurUBkKhUMY5F/TwAyN3K/gwS52N9FrDdp3wb3Oe0s3zdtb6zn258Af+5MmT/P73T/Lmm29SWlLO5MlTUMIbbUuiFEjpoqRCKomSmlxJpTA8qVoqhStlBrWRpFmiEULo0xUKKVXuLg/6vkIYGIaBaRoIYQDKc2TU51mmhWGamIaB67q4rkNNdTWtJ1uoq63V6VSyL3zBIRaL0dvbC2QXpc0tk5bv76F+G8n+fBiKKJ2dYPmOrfq+RUVhysrKsG17xO04l1HQLg+pVIqmpiZ6e3sxTTPIJFlaWsqUKVOwrIE0WSlFMpnk4Ycf5t1332PJkiVUV9VhCANp6POVcAACYuVKF4FAKVNPRJUmWtJ18amUJmCa8IwUmaJn7vlCKO+lMr2JayAQwWQUSgYEyDQMQqEwlmUFWTJTTgLTMNi7Zxctza1873vfxQ5ZQ4qX5yuUUuzYsYP9+/fjui5VVVVYloXjODiOg5QS13WzvmdmIPX3w8AspEOlX87ny5Wb3C837UxWrT/DX6jSnvemaWKaJpZlYRgGlhXCEEYwFwwDotEo8+bNY9q0aXkX8UJEwXJaSil27drF7373O3p6eohEIkHe7ttuu43p06fnPU8IQVNTE++++y533X0vpmGihO6GgFgIf/Jpkcv/BNO7uci5JsHxZ283o+BwVKBT08QtwwsbMFT+dLz+pLZDJgjB0uXLeeSRRzh1po0J9fWI81yMyIVSip07d/Lcc5s4fuIE06fNJBotx3EFritJJlLEEwlSqRSJRJxUKhUQq2QqietKXNfBdVxA4DipgID5109z5T7xSndymgaJ4PfMOWMYPrHShMcQ2WFAfkocy7YwDYNwOIJlWYTDYWzbJhRShGw7WMyOnTjOiRPHOd7cwvz587n26sUffqf+EVCwRKu9vZ2f//znVFZWMn36dCKRSJBPe/78+YOy0n7+oiVLliAMAyXAzZpMYKiw/vTFBgCVmcFS5lxzuK3W+ZMU3ioqcq4jz6JPQYJHqDIp5dl0Hcp7gJ5EP9evuJHWtjbGjR9PCP8lGW77Cxc+V/PYY4+x+ta1RIqKMISn3zPSnE224OEvXpowKU88V1ITFqWcAfcY6vuHoS8ThgFIvXQJc8hjZ86bRzKZ5EhTI+s2PsPFcy+ivLy84I0EBUu0Xn75ZSzL4q/+6q8oKSkJWHyflR8KR48e5aabbsoYvGyWQ/mfeWLJNIFIH59LMFTG/2lkTxJXSnp6uimvKM3e74sFg7ZcE6zgZRAChGAkVs329nYmN0zWbS5YxcDo0NTURElJCdGyUq1+9LlWb/+gmpJgXLxP09MtMjTR+OgwPDFPCM2NzZ17MWUl5ezZs5vly5d/xG376FGQQq7jOGzZsoVvfetblJWVBbmKfPk+EokMeq7ruqRSqewKJ0KRlpU00VI+gcDTXXkT+uDBd3njjddRStLf38/+/fuRUuYocVV6U2lFvQIwBN293ax7+mkkEiUUyqMfEoH0CGH2JgLLYUBIwTcppnUoIv8WPKYQvPPOQcorKzBEQPMuCEgp2bx5M3PmzMFVCikUSgikkTVa2dsg/XnW/R/5JlDDsiKagInAZsqUGTQ2vocaRJVQSChIotXT04PrusyYMSOv4vJsFphkMklfX1/mrxAQKl/fkH977rln+N//+Pd0tLdz6uRJHn30Ua3X8HRVAl8hq4UJJSVKSlASN5XAQNLT1clvf/0oQjooJ4WQDiYSUygM5SJdB6FkQFSUkkjpIgxBynE0AfV3CoEyBFIM3mr/+YQSnDl1hpAV1jzCBUKwQC9oBw8epLKy0uuOHDF7SAiyOmuQr8PZ9u3dx+HGRgwhRnSeGHjbIWZphuwQPJ8gmUyR1qcVLptdkOJhc3MzV1xxBTCQQJ1NXjcMg/7+frq6uiivrNY/Ks2p+VxJ4G8lsgdWKpd4oo/urk5efWUb06fPoenwYUxh8NorrzB91nSqqqt5Y+ebVFdXUVNeybaXXiJaWkoykSCViHPRRRcRiURw471se2ETiUSC6upqPvaxjyFR7Ni+nTNnOjEMg9kXz2Xy5Mm8/sYOTp1sZeas2TQ1NWEYJjfccH2gcPVVYcZg0o33YIYyMZRAJjN3Dtld5w2UUvT392u9VY64P9TKredTrrogW50wWL/nFm4VQvD4r3/NjBkzmDFt+pAuFsFv6Z3pNnni6Vmt1D6zrxTC1MaGTCNAoQ5+QRKtI0eOBERrNLmKuru76e/vJz1o2ecPOqRK4ToOS5Ys4YUtm5k0aaoWs4AHH/wpn/3i51i6dCmPPf4YixZdyaWz5/KDH3yf29fcwdatW6muquLKhQu5++61JJP9vPzyNpRSHDt2nIaGBpIpxS9/+QsmTphEZ1cnr+/eybe//W0OHjzIg//6E2659TZsy+LFrVu5ctFCqqqqg/YOV69VEi2lt6eb6uroBSMa+kgkEjm/DJ/bUErx1r59lJeXc/rMaerq6pg4YQLd3T00nzjB3IsuIh5PcOTIEWbOnElzczPJZIL+eJxQKEwyEefiiy8h1t1NV1cXO3fuJBIJM3v2bEKhEMlkiiNNh+nt6WPcuHFMmFBPT08vjY2NlFdUkEql6OvtZcaMGZSWlw+31QEhDIX0q67flcLlsqBAidaJEyeCenMjhRCCM2fO+N/0h/IVqp61SGTtzTpXAXPnzubYc00cPLAfQyhQLol4P0roFa0/4f2NwjIt7r7rDvbu2cn8Sy+lra0NYbrYIYP77/8ClZWV/NmffYMDBw7Q1naGM6dPcvfatZw6dYqfPfQQ3/zmN/js5z/Dfzz070xomMhnPv0ZIsVFYBiBnk0xfOXUuNo6erpjCDW+UBfaUUEpRSwWy54zYmRE6yc/+jGXXnopse4uhIC/+NZfcPz9ozz08EP8zf/7N7S3t/PLX/6S7373uzz77LN098Q4ceIEs2bNYt++vfzt3/wdhhA0NjYC0N5xmhUfX8HSpUt5440d/PeL/41t25iGyX333UcikWL9+vUopaipqaG5uZlFixZx+5o1ml862/hl6Wm1f+L5gILUaZ06deoDOcr19vZ6RQOytQC5OoOB0A6dZWXlLFu6nA3PbESYBlKAFQ7hJFNIx8WJJ1ApR4fbCBE4BVpmGNcF6UJxcSnjauoAg3CoiEQ8heu49PX18fbb++nq6uTG669Hq1INTAUrb16JZVl87YEHtG4maNXZ2h2YFKiqqsBxUoPsP38hhCAej2vHTPLriAaH7pu9e/cQDodZtmwpGzdupL3jDL19vRw8eBCpFPF4P/v27cVxU7x/7Bj9fb2cbG2hrLSYvXt3093Tjes69PX1cf311zGhfgK//Pd/J56I89BDvyKVTDL3oovYtWsXO3bsoKammukzprPt5ZeZPHkyc+fOZc+ePVmi4nDhF4k9H1CQnFZ7ezuWZY1KNPTP0S99YOwG0gvTYCuYVGCZNqYR4vobbuKR3/yWyspKpAETJk9i95s7CZkWsdPtHH3vMHNnzg68lzXxioCyka5BMuHyxhu76ezsJJVSTJs2i5qaDmpra5k5awblZeWEI0VEw2F2bHsFkZK89dY+ent7mD59RhaNMdRwiBYgHOyQgTnAUl/YOo7hQAiBZVl6LEb8zntuLkJx7333UBKNEg6FaW8/Q+ZApJykF42qj6+fMJ6j7zcxeepETEt5/l6KSy69mCuuuJzx9XX815NP0t/fy/ETx7j4knnEE/1MnTaV7p4eSkpLmDZtKtHiYq6//noADh8+PCoJw3Gc84bTKkii5bsYjBaVlVWUlpZhCMNzHs1xAhxwRtoGN23aNKqrahhXU8vNN6+kr68PIQQ333wzz214mjffeIPLL7+cZDJJKBTi6quvJhqNMn/+fKZPm0ZZWSnRaAlz5szhtde2k0gkWLVqFbNnz8ZxE9x4403s2rmb4uJiqqprWHDFAnbu2s0ll8xn7569mIbJNM/bXwRtGxbJQgjo7OwkFLJ9n4nBjhx2XxYSfO409+mGomF6kUt/N00dXSCEQEpFOBwmmUxw7Ngx3nuvEaUUXV1pMVQphWGYGbokhZNKcaqtje3bt1NbW0soFKK6upoDB96hqKiYKVMmc+klF9PT00NHRwe2bdPR2cnECROYP3/+qGIaHcfBtkNnP7AAUJBE64OESwohCIXCnDnTzvi6CQgEhu8SOoguKyBawuD6G26gyLQxhM2nPvkp4okkQhgsXryYmVOnYJomYdumr7ePmpoavvnNb1JXV8sXPv8FIuEqUqkU1TWlfOMb30RKSTQapb6+3oslE3zm05+lubmVZCJJSWkJpmlz661rWHXLraRMfbz/QhhIry/OQrR81Z1yefnll1h9y83ei3hhEa2amhpgoCrrbLohf75NnTo1qArd0NBAOFxEaWkJEybU8+xzG4n3J6mqqubIkcOMq6mhrKyM2tpaioqKmDx5MqZpUDOuho6OLl7auo3tO15l7dq1hMNhbrnlFt58802KiiIopaitG8fxY8c4cuQI5eXlbH/tNW6//XZs287juX92pJIpSqKlZz+wAFCwROuDcFtKKnbt3MWKFeOxLDPj3fX8vIK4sAwzswCQVJSXYLjad6qiXK/cSihsywrq4BlCoKr1uROLiwHJ+Pp6BDo8SKoU06ZP867r80v6HwImTKwHBcLQq/OkSRNACKQnB0ptx84iLWlX2IznDPZJFNB8vIUdO94YYsU9P4kV6LGsqqqmu7ub0opa/1fvc4DJJc93xec+93lMwwQM7vvEp6iuqaW0pIQv3P9ljh07xmXzp9HQMJnSsnKWLF1GNFrM+PqJNDRM4ZOf+iwlJWWsvOUWmo6cQBgmq1ffyuKrr8YwTVbdehu14+s5deoUAIZlY9khpk2bxrRp073MDcMfn1zC5rqudrpWFLxHcUETrdFi0aJF7Nq9i7nHjjN16tTgdxEsuZ4HTJb3sEDgaL8X34tUGcHx2vVBny+DzHvZbYaktz/jur66SQhABmKEMETaDyfwH8PjDL3rCTOYg/p7Tixj8DgSJ5Vi0+YXuXjefMpKc03m+V0/zicopbhozlxef/11bp80I4gr1cgdrJzvQiCEwYqVtyBdicLixptWBrsXL17GYi8WeRGQGZs6Y+ZFICQrVtwKwFWLr+Wqq7zXzs8mIiASLWXZdTcEFmGA2lqYMWtW8H0wf7DBnjdzUT/VdgrTNEfkHnOuouCI1oeRSWf1ravpinXx3qH36O/vJxwpxjRNHFenGlG4OK7reaJLzQNJCdLBlS7KkTiOg6u89CS+P0y+tnmR/1JJlKt05E0eLYoAz8FdIALlvU/M9HfD22cYBoYQmHYIwzAI2WFtqTR0JgjD9I7x0tMgXZqbmzl9uo2vPfA1IpFwnruf/9bDRYsW8eCDD7Ji1W1EwmGdTYEgXhrw51ceYuaNrWEI788MLvzsd8/5rgJCqJTS4qrQtxBDyKrBvBn2O6DnZXcsxgubN/HJu+4odCYLKECiBQR6hdFi+vRpfOXLX+Gdd95l//4DFBenMAyThBeTKKWD6zpIqXQiQOVq4uVKkqkkTipBIpnEkZp4oYTOpeUhq21ebKBUmvAN2uqMIGjfTcIXVoX3VvlEy/QS/IXDYSzbpigSxTQNDFMTNsPW+ZV8p8VEIs6ZM+188hP3sXz5UhQSpUSGXsvfzoMZPQiEENTW1bJq9Spe2/4q1VXVTJ48hdKS0iDsORCplK8r9Dlp77tIc9KZ3PLZPOKHaBVCgKtUMMYDJkgGB69wg/sJoUO3cr3qM9HX10Nrayt7dr1JvL+HhQuvPC+GueCIlm+6/mDKeKgbX8v48bUsXryY/v44juOi/AkiPJ8tw8+gIBFCczfawVSiVAYB8pLz5Zs76Qk3/PYGmUszntHPaKo84uc/h0bGywUgjCAwNpFI0Nffz7hx4yiPliBMkZEuOrul5ztMw+BLX/oS//BP/8ybr+/g+PFjTJgwkZCfTFH4weoi6GOFNmDoDLa+rlNozhk9LpmKfYEn1vtDmPG7IYTHUaUJoCFExrzLFt2Ed3zaEumNu3+fINbWu0+GNkFKSUvLMZqOHiVsWfz5N/8HpaXR84FmFR7RAgiHwx9IpwXenFEQiViEwyVDr0Ai57wcSMhIFDj0JYaaMCN9otxrDuUiqlDeCp1xxuDm0vMSwoBIJMS3/+IveGHLC+zb/xbJeB9uKl9abo+zUZ5IH3BfmmiBF/OZpk8eURLBZPD72ueGgjVI+QRJ4OKJhIGEnnaVyOWgstI/o1WufvZU/d0jaj7xclNcedmlrFmzRluoC9KVfCAKkmiVlJQEGSPz5bwaKfyY2EF5oVw97WDXYDB9VToPVq5PWNYNMiyJ+ZuRM4nzNG9wupufE7zQoJTCti1WrlzBTSs+PmC1yc6N5qUVGsDV67z80idSZC8c+b57N/fET/+AgWOiC6ikb5k5F7K1Dvo6uSmb/Xubpoll6M/RuEicyyhIolVUVITruqPyiB8KSuSZn5Bh4csmCvkmaC5hybFH5p88wcRXWecMOCzPvQfbPyxcgERMZAyiKdDZa3OOyVKxC5GVzjpdAMPAzToye8HJqxbwuK30HMkzAGbW4aOCkUdqKPRspZkoSKIVDofp6en5QFyWp2/12P60YtNXmvuros8h4X8qXdhASkkyldLHSonrODiui+u4SCW9fOIuytXfpSu1Mj5LzFCBJUqgCxUIY+CzCE/E8EUOwzAQholtW5imRSQUJhwKEQpbQZEDPz+8X5jB92vTMZdBLwy404UEkcMl5T0GEVgZNdJjJ9IH4Y9hoNMip05mhmuLIIPfzlz5MlSZwtCin+nF2PpW5/Q1c/QR2baf85qrLkiiVVxcTEtLy6jPlxIOvH2A/W8fIN4fp7y8isrKCoQldGZT16+8oiefrz+TUpJKpUildMBxPB4PjpPSRbmaeCnSugafwPmcYeYGaYJomSaRSAQjJzDQtyQaGaKIT5hsy9LWw1ARxcXFREvsIL7Or9qSTCY5c+YMra2t1NfXU11dzcKFCwdJUXIez/Q8kIFBQ2SNhz9eyWSSeDxOX18f8bgudJFMJpGe1TiVSgXjmg9ny5XlH5NZaSdzU0oRiUSwbT2utle0IhqNZlXlgXS1HtDWTSHFeVN9JxcFSbRs2+b48eOj5LAUnZ0x/uWH/0JHRwzDMJg0aQrjx4/HtE0c10XKjAorOedLVwsFITvk+VRpN4RQyCZkWoQjEV0Bx7a9zA4mhqdXMIQRZH4IgqiFwPAmoOXFtUEGFyBEsNpmOh5K1yXp6KwSbkq/RLFYvyaWnn+ZzlSpOHr0fd599yAV5RVIKZk0aRJ1dXUj7rvzAp7o9PbbB3jrrbdwHCfQkQYcdDJJaWkphmGQSCTo7+8jmUzhOg79/XFc6ZBKOcECJgORUWRxX/54+8p4SPuB+UcapoFpmJhepR09dyws08K0TMLhMJFwBDtkE4kUEbJtKquqsCyT7liMvr4+YrEY8Xgcx3GyiF84HKakpITp06dTVlZGRUXFH6HDP3wUJNEKhUIB0RqpglEpxd69e9i3bx/f+7//H133zgzpFdZTdwyoTef97e/L1KUpQBl6xTZzzH+Zxw0sjuGl2/VWS9+VQeU5T+ts84iN/iqrvHp4puM5lZqBOGlbFguvvJJkKkXju4d48cUXeeONN1i9evWI+u18gVJw+vRpfvLjf+XdQ+9SVVlFzbgaUOB4HLaTcpg0aRJV1VWUlEQpLo5SVVVDOBzGdd0MEc+bGYYxYAHV4jiA70YhA1eWIIIBX4eaVhO4rgwIm4ZWCTiuJNbdAyhOt3cgpcvJlmY6Ojpoa2sjFovhOE6wYNq2TTgcpqamJkhPPmXKFC699NKgpkKhoiCJVklJCW1tbaNWxL/55pssXbqU2lodg6YLs3iTMHB6SROp3Dtk3XMIopnp+JdLXAOXjQwRJRO54uNg1/ev5bouLlpszTQopJ0WFRMmTKJh4mROt50J9HhD2EzPWzz0yKNI4N77PsmsWbOIRIq0KJXRFVINdBb2i7hmFnSVUusrNbHx/OSUxHE0xy6l1Ny76wZEK4i08BfEHAug8NQBwtDceabIaJgmpmlgmTaTp85g2gwTOxTCskyKi4o15+7rwbx50NPTzb59b7F128t89jOf4fLL5n+0HfwRoyCJVmlpKV1dXaM6VylFS0sLS5csDTgrV6S5G6kUpsf5WCKjTiEE+7NcDDIdBjN/I9scnckV5iNkw+EYc6+Rrsyj/3aNjOFM06oATkoxefJ0QiFL1+4zLzyClUql+Lef/4Jf/epXoLwwGmFnukiR82fwt2GBnRsBlRcfbcWb3PKY/nef0/dH1fFUWkXl1Vx59VJaT57kn3/4I/79Zz/90C3vf0hkaeoymdJzGdFodNRZGF3XJR6PM75+/ABCEXzPIEymaeK6Lr19fXR3d5NIxLUVkHR/KalyrDfZK6frusT7+zly5AhNTU1BJaBM3dZwtkEJm6aog54XtAt4a/9bTJ48+by2Lg2F7u4eamtrvX7JtQwOBnWWTQ6y/WHguRkOaJXI2AwhWLZsOVu3bi14n60sTivX7+hche8RP5qVwmfLB4MQIogl81/6021tbNq0Cdu2iRRFmDPnImbPnh2sVmkSl9+LWSv/u9ixYwdNR46wZs0aLpo7d8Rt99s04JnwJu0g3eFzYgp4c+dO7v/C5y9YohWPx7nxxhsZTh4yH92xGJGiSFD9aCByCJSfbUOlCWIsFsN1XQzTpLysbOQNHwKDZdzNCi8SgqrqKuaOct6dS8i7zJzrHFdRUVFeT+DhwDCMwC0gE0EWBQg6QHouDMeOHePBn/6Uo0ePsmP7Dv7jP/7DS12rI+ibjhympaU5uJZSira2Nhrfe4/Ozk4sy6I4WsyUKVN4bft2Tpw4kaVod12XY17CN5+DlFJy7P33ef/oUXp7e4NjY7EYp0+fpqmpiaamprQrBWpQPsB7QgBaW1uxLCvjt8zt/EcqlWTSpMn6i/D7aOh/zz7/DM0tzaQ5qPw9PNibo4Bdu3bxwpYXeOKJ/8w45mwcXH6kuaf0lvYOG/x4FEyZMqVgxUIfOZyWynJ8O1cfLRKJjDr20Pd5yYdgZcpUgh4B/tMAACAASURBVAsBUhItLmbt2rXs2r2Lhx9+GOm69CQSrF+/nlNtrYBg1cqVzJkzh+PHj/PUk0/iui7RkhLuWLOG6poarrrqKp151DACLs11XbZt28buXbtACKZPm8bHV6zAtm22bNlCZ2cnNePGccP111NXV8c777zD7t27SaVSdHR0sHr1KuZfvgBTGFqhC+SuRYFSXghisW4MX/d1gcUeAvT2pov0KjHUq57G73//BHV1ddTUVBAKhbCscNBlyWQKx3WIRMKYZlqETyQSoFxCYS/xo5ScOHGc//zd7wJON9PYokuNhbC8nFeu4+A4Esu2tSuMh0QySTgUore3l0gklJ7LSqE8o0tuZlb/u1SKUChU0PosKNBqPJFIRKeEGQWGEitzf09XARYk4gn++8UX2bFjB1OmTMGyLN5++22efOopqqqqOH78GL/5zW9wXZfnnnuOHa+/Ts24cWzatIl169YN0En5nF1PTw+/+MUviMfj2LbNQw8/TNspnbAtUlSEKyXPbNzIhg0bkErR1NTEM888Q0VFBbFYjN/85rcZTpIGA7mndE5TTYS1/9C5zEl/lGhvbycUCg3Q9w2FVCrF/v1vsXHjRp5+ej0nT7ailOTo0SY2bFjP00+vZ9u2bUHg8p49e3jqqadYv24de3btAiW54YbrWbz4Yziu9p1TXgXxvr5eNm3exIYNT/PMMxs4fuI4oGg83MiGDRvYuGEDu3fvDq69bt06XnrpJdavX88zzz4bODrnQ66uC8iJiChMFCTRCoVCQw7WUHBdnWYEsiInBsAP0zCEwBSGXvlSKRoaJlFcHOXQoUMcbWpi/PjxfO5zn+OOO+7grX37SCQS7Ny5k6VLlnDfvfcyb948nnjiibTnu2UFJm6FLofW0tzMjBkzmDRpEpFIhI6ODpqbm7Ftmzlz5lBfX8+LW7diGAZOKkVdXR333HMPt912G0ebmtJt9qepyt78PwFCtu15UnNBcVg+mpqaCIXsEakWlFTs37+flpYWnnnmWdatfwrHdXjo4YfY+tJ/09h4iJ/+9Cc0NjbS2dnJz372c/bs2cOe3bv4xS9+Rqyzw6tarokVXmUfhOLNnW/wyCMP0dR0mGeffYYNG9YDiq6uDhobG9m5cyc///nPicViKKX4yY9/zNatWzl27Bj//E//xPHjxwdtt3+bzPE/H8qIFSTR8sNTRoMBrgc5kzffCuxKl1AoxKc+/SnuumstJ44f5+0Db2NaJqlUiu5YN92xGLZt6xVRShKJBPFEgt6eXkpLS4PwkKJIhJaWFpLJJMlkEgGkHIf9+/fT3t7O8uXLKa+o4KWXXmLjhg1IKemPx+nv6wu8tkui0SCsA98xdRg6PiEE4XA4b3zjhYKmpqZR6UIXXbmIP/mTP+Hmm29m44YNpFJJnn/+OT7xiU/ywAMPkEwmeeWVVzj+/vscOnSIBx54gK9+7WscaWri+IlmvHBW/JXCn4ebNm3CMAzmzJnD+PHjef3113EcB8uymTVrBrPnzOLtA/tpbdU6NaVcbrrpJv70q39Kb28vhw8fznB9yV6HBgq+ivb29vPLelhI8GPARurdm5v1dDgigu/28Pzzz9PR0YErXRoaGohEImzcsJEnn3qKffv2cvXVV1NUVMR1113HCy+8wLp16zh6tIk777wzuNfMmTPZ+tJLFBUVcdFFFzF16lQWewnGS0tKMAyDyspK4vG4zkxqWdTU1NB05AivvPwyhheeAZoLLCoqStdW5OwGlPr6CUFanwsRXbGuoKSXHMHLO2nyZEKhUCBe+Q6m5eXlFBcXE4lE6Ovrw/H6try8HCVNECaJlIMSAtO08D3kffT399PZ2UljYyORSBELFy6ku6ebhx56iAkT6r0YRIee3hhCSKRyGF9fR3FxBGGILInjbFWGlCJwtylkFCTR8lepWCyWVWl5uOcO9zj/2NraWm6++WaONh0F4JZbVnHFFVdgmha33nor7zW+y7Rp07jjttsJ2TZr1qyhKxbj2LFjXH3NNay+9dYgtvCWVauQ69fz3nvvMXHiRIqjUb7yla/wzMaNHGlqwjQMpHRZvmwZZ86c4eDBgyxYsICSkhJOnDjBnNmzKSsrwzAMxtXWcuMNN6RjGrWXazq8ZAAUdXXjSCYTQHRE/Xa+oKFhYuC64Gv7VI6cnGuIMgyDt956i2QywfbtO7jppo8TDkeYd/ElPLVuPTNnzqQzFuOSS+czrraOqupq1q1/mlRKUVpWxvjx41FAZVU1dijMs88+D0Kx4uMfZ5k3zg0NDViWzaRJDSQTCQ4fbmTZsqUIISguLub111/nkkvn40qV4Zc3Mt2kIQSWYVLoeoGCJFp+MGhLS8uoiJZpmnR1dVE5rnZIr3T/+8SJDXz729/GFR4xMwxMU0vWa9euJeUktOhlh0ApIkVF3H///biuFitNwwjEuHnz5gU+Xj6XOGPGDL72wAM4joOSklA4TGVlFd/4xjeCY1bdcou2OkoZcAhTpkxhyuTJQeiRb9ZWOUtu4EWmXE6ebKWvrxdU1Yj67XzB1Vcvpqs3QZCQUakgbbGPwKiq9HgvXbaUnu4e9u7dS0VFJZ/85KcI2WHu/+KX2LRpE28feIeVK1ex6GNXYRgG99x7H/v27cUwbO66+y5qasehBIyvn8Ctt9/Ozp07sSyLm268keuuu45jx47x7rvvIoSgqCjCJZdcwsqVKzly5AhKKa677jqPw1fcsmo10ZISFLBq1SoaJk4c1nMrL9LDtixvcaNgaZdQGW+qS3YOoHNV4eU4DnfccQff/va3WbZs2YjP/9u/+TtSTorb1tyJ4zg43pP6zxtEt+SE3biBh0A6WFYgcJW2ZJqDBDUHFpwMU3Omy0Y+nzH/GMuvqEPaUdXnNF3X1fvRlkjpvW1BcVb/et6Dvbd/Hz/60Y/49SOPMnnKpJx8UBcGYrEY//nUOi65+GIEpsdrZasYZAbRAkVfXy+9Pb1EQmGKiov1iy8ESVenqlHgLU4mwuOU4/E4UmqfwkwVhuM6xDo7iEQilESLta7Tdejt7cVxHMrKywnZNqlUip6ebixLBz/H4wlKyis8fZcWM2UqhWFaOm0RDCC+mVBS0Xm6lb/7//6OTc8/ixAUbPrlguS0hBCMHz+e7u7uUZ1/7bXX8v3/9X1W3XIr0eJi+uJJnUbGsnQwq5MmEpn+NICu0pPByOgah9rL3oEgn1YuglzegyjMhX6w4NN3gk2lUsGk9N3Y/RxMfs4lgc4SYAor27XC0H5gjtSK/le3buGqxYsYV1vNBRorTSQS4dlnNzD/0ou12wEg1CBvrzf2kWgxkWgxljSy+teyQlhWKCByvl+fMC2KikvS8Z8ZlzQti8qacd7xEoQu1FJeXp4VrmVZFhUVaSkiHA7jCAPTDgXXM72iu8MZRsM02P7aa3THYigFhZxqq+CIls9p1NfX093dPSpHucWLr+JjH7uK1994nYryCiJFUQzDQCpJb08P3bGYzkKa8uocepNUKuUpPtPTREqF8ogWSrtU5MbICPTvwsh0AM3Y71kxA2LjES8/IaCfT8vwxMzMc4JrGAZhO4xthwiFQ9i2RXFJCfF4nNPtbRw4cIBpU6exYsXHA0X+hQjTNKmurqbtdBsTJ0zySsDp/k0HY2Uj4LyCcU0X6fUXtuz92ZoykRPmo8i+X+a5+crjBamLRE6CSJkdkJ8P/qLW0dHO9te2c8899xQ0wYICFA/95j744IMopfjTP/3TUXn3xrp6eOyxx0kk4kyePAXHSdHX109XVxexWMyrb5jSRVtlziTKcRnwdUhCmBjGwCBcfwUNh8NBoYGBD5aR3sQT/fwEcyB0QVE/60TO5t8jZFqEQiGiZaWEw2EqKspJJOKcPHmSuXPnsvCKy2loaMhq14UEv6+ONp/g2eeepbysgqlTpyIwSSaTpOLaTSUZT5BKJXXqGVeSki5KShw/pDCjGo+SEjcI/sv2chfeWBoy26dQGra3X38XQnoWYAPLMr1LKZ0c0JMADMPACBUF+txQKERxpAjbsvEVVPms4u3tZ2g+cYwzZ9o53dLM//U//5L6+tqPoHf/cCg4TstfdWprazl06NDoXjwFpWUlfOVPvvShtCkj89Kwjs/X5HxPkXu1s1no/XqGmYdl3iutkL8A5cIMNEyYwPyLL2bXrj001E/AtkMYKFKpBPH+Xvp7+4gnEnrRchySrjaQuK7SgX4S3bGeFU+igk73OW6F9tdTSmEov3KUd4zI4KYUCKG8jLaegUdprt6vARCybQzTxA4ndUZcXEImWEYE29KREDp5oUu6Ifo9iff1cOb0KcbX1fGlz3+GcTXVf8iu/khQcETLR8iLvxpVHJX4cHXPmULBaDGcM8/2mD6XfLZnu9A4LB/+gmciuOrKj7Hw8gV0dHQEnEsmMc/Mvz7YtYZK8pgvldBwEjvmw2DOw76vmA/HcQbcY8bUidx0/ZIg1fJIslucqyhIouVPlt7e3g/8AmYl1SN7UANdRebx+a5B5nGDa7jz2BbzXGewCT0wgypDeGSNIT8y54tt2xm5tfJjMALjE6XBiNZI2/KHwPnCYRck0QI94c6cOfOBItb90JrAxSCwAulPj/vPPoccIqYyPY89B89BiVau+JbNGQ0Mu0jDyEu09FlpD43Cjt7/Y+Bs/XU2bmu41zkXUAhtHA6yiJYfu1QI9Ni2bU6ePHlW68lg8AlWd3d3UDlHek8vVabrQcbE9ORKv58Qht4f3Dv9mcsDBVWmGdi//lkyc49KFztgwDm+tdGraeiJDkaOMjaTiPnPeJZeOcv+s6FwXorz5QW+EGFlsg75FLnnKmzb5vTp0/plHaEN13VdWltbee+992hubqa0tJRIJAKGiStl4KSZyQN5Ljg4jpOhR9BETRgesVCDkSXvKkp6xCy3vb5fGMG52oKY9hdLt0N5sXNg4tc31AQpbKeJkm+l9IPLe3t7mTp1KrNnzx6QniT9Al84RAvSaYrGCFhhoWDFw3A4TF9fH1LKsypNM6GU4ujRo/z2t78Ngk1LS7WLAIb2PvetO0ERVo+TkVKRSOiinUEllmDzinxKP7PlgBsH10rnx/WJzMCEhmnlK6S5LRcUmJaJbdmEQjZFRUVEwlEikQilXhCtELqQq19Psaenh8bG9zhytIkD7xxg7Z13esG7Fx4yuU+/+GooHA6U2NnzyK9NaXil3vJoFoXHQ3sLxB+S/mWqqAa7r+t4hNkg7aRc4CjYmRuNRgOOZyQrpZSSJ554gh07dvClL30pq2hp4LxneL4yniOo8ipNZ1px/DQxwblSopQxeOYAr+6dJlpeAkOV5njyPcMAC5RIes3TBT4Nw8C0TEyh/b9Cdg6n7LOHSjF33jxOnmrl8cceY9GVC7V/kjDPG+XscJA5fq+++iotLS2EQiFqamu9hSgVLDxSSs9tQPvfBeOTY8lTaD8r/dUA0qXCBgj1WTowBvjz5SJ7TuhrGZ7vlnYu1nGwOnrCxLLMwE3Cayr9/QnOnD5NZVUFH7tywXnhWFywRCuzKvDgBQcGIpVK8dRTT3HfffdRV1eXPTFE9ksfxA0akLYoakKS955q6O5UyIBoCQAVDiIYjSHFFL9FSe+v3Kqw+r6Om1NDyvsiBBRHS5g9aw433bSCnbv2MGXKtDyr84clJp6b8Pv30KFD/O53v6M71sPCKxfQ3ZcISt1rDtqrNu3qXGpSKaQrPd2hRHlcNehK38LQ+1OO0mFeQayoG3jM++sH6N7NHe+Ag/O5OZFDtDw1jmVZ2FbI4+zS9RBt2yZkW4RCNrYd0mpPqVM4NR09SiQS4cSxo9x9992DphsvFBRs64uKioIy5iOBX0Js4cKFA4hEevUc3Myd+3c2pzL0yqlUmjMTQnh1WoV3XqDez3Nj/yUwsr4PvP5gMXRazJQuXHvtMna+/gYCrzipynRaO7+JFujx+vnPf04ikeDmm1cyc+ZMXBHyxHrfYpw9tjLoby9vWcBJeed45ZuUzAm8DohWdgWorL/9Kw8SNJ/7m140/TAgI+f47FTifo3OS+dfxukzp/nJD/838+bNY/78wi7Wei5G6gwLoVAIx3FGrEQ1TZMpU6ZQXFwc/KYwvHiwoTdfz+66kubmFo4dO5bjZKjDcPypmNu0LG2JEMRiXWzZ8gLd3Z0MXjvv7HX00vxh/s23EegMrDblFeUj6rPzC4LHHv8NDZMmM23GjCCjVrBmiLSV15PhEMLwNp8bMrI3b35kzQWhuWfTC2y3LAvLsr2sDaH0ZtnYlpW137JsTNPyOCkrvRkmhtDVpw3vHv7mt1l61mS9oS3iQlBTM44lS5bwX//1X0Bh+2wVLNHyA0tHWuDCT+2RqY+SwkAKI0281GCboLe3n6eeXMfGjc/wxBNPsHHjRi8NiWTbtq00HT0MKPzYZiFUsPnp+fxVNRbr4je/eYzunhgIicLFtAR4GSoRUv+uXHyHiHz2SSG83FBikM3PFa8k/f19RCKRgJBdaEilXCoqq7j+hhtRCG10yXz5BQO2XC5Y97bQ1XyESM+PTHhK/WwRT19QSuWNh8Dw9GUqY39Wfn9vy/o7+3KDbsLQBgT9jAYrVqzg/fffH3XN0HMFBUu0QHNbPT09IzrHdV16enq86iaaSMmcbXCeBZpbWvjZvz2IaRgUR4o43NhIMh7nrb17+cUv/o3nntvI3n27ea/xXaR0OPTeu+zZu5v29tPseH0H7x9tQik4duw47x9ron5CLdFoBHBJpuIcaWrkSNNhtu94jdbWZl29RSiOvn+UV199haYmXaU6t+is8GLhdDtF1obHSQgBbW1tmKb4g1q5ziUkk0kWLrzS0/uYSDVE5W4fHs0K5oFQevO+SzGwGmK+Dvb1l8rj1t999106uzozFPsiaxNCi/CBQeisT5dzvncv/XiCaDRKdXX1qMvvnSsoWJ2WYRhEIpERE63MohjSs97IwIrjJwMcZFCl5uws06CmqpJrrrmG8ooKlONypPEwiXgfzcePcejQAcaNG8fUqZN55539bN68mSuuWEBPbw+dHR385V/+Je+/f4zGxoP09HaRSPahRCm9vV384hcPMn36TFpPnmTbtq189atfpa3tFA8//Ah1dXUcOLCflpYT/M9vfxvLsoLEgwLSdfxykoMLIT1GQnD8+HEmTaxPc2AXGFzHoau7GyUEchhrtvC4L8jUdWYmY9Tfjxw5zJm201x11VXpk3OojFK+uGniOCkef+wxbrzpRhZffZXHfWeHBvn3l8r1DDcqLzHMaO3A+2Xsi8ViVFVVjdiv8VxDwbbesixM0wyqLw8XumKOp/z2FNHC3xjaPVIgaJgwkSXLlvPkU+t47LHH2bVrN4ZpsnDhQkpLy5g6dSrXXruE+fMvw7Zt5s2bx65du+jq7GTZ0qVBCafp06dzySWXcuDtd+jv60MpRSKZ4OWXX6a0rJSrrlrEhg3r6Y/3sfmFzTQ2HmLlyhVEo1E2v7AFhfYfwvO0Hw7rJARZlbCHetJCcxQdLhzHobW1dUTnBByU0tbCWFcXR5uaaGlpQUmXvr5etm59kccff4yOjnZ6umOgdMbTjo52kokEra2tnDndhlSSZDJBd3cMwxSYphHowLq7YySSCZqbTxCLdeHzV04ySXNzc5A26eyFSfzxy9RrSlpbW4NCKIWMguO0VIauwLKsEddxM00T24poNwHluzUMoTH374v2q4mWlPLAn/0Zzz33PNtfeYVdu/bwT//0D9RPnIghTCoqqqivnxC0dcrUqUgpue8Tn6CqqoqvfvWrhMNh6urqPG92Ez80SEpJOBzmqo8toqKyglDYJpVM0HTkMAsWXMGkSQ0sWXIN//rgg1p0CAobKAZxac3qN1BES4qHOen9pz6/4DhOUDFnOPBFM+8LTz21jnhfD/39/RSXlLJmzRr27dvLwYPv0HqyhRdf/G/KSkq4bvl1vPPOAfbs2U1FRQW9fX10tndx3yc+Qby/n917dlNVVUlVVSVC6Ayz69Y9RbQkSkd7Byknxd133020OMqGDRvo6OykxNu3du1aamuHyIkVJLnPlhh6e3tHXS/0XELBktzB0hafDYYwsbxSTn5F5rQWQPl8S74bolCcOt3G4cYjLF68mBU3r6DpaBN9ff0IYVBWXs7hw4c5ceIEZ06fxkmlONPWBgqSiQT9/f3Uj6/HEILTbadpP3MG13HpaO+gO9aj22ZY2qJk2ChXr+7VVdWcOH6Cky0naTrShEDgOm6gr1AInQJ6GP0xderU82LijhYpJ0U0w3I8EgjgR//n/7Bt20uYBhQVhRFC4aRS2JaJgS7sq6TEd0J9/vnnefbZZykuKmLfW29xsrUFBBiGYPPmzRw6dAhD6PF84vdPsH37a5SWlbBu3ToOHDhA68lWfvWr/6CoqAjHSfHQQ7+i7XTbWVo6UBsrBESjJfT1xwvacggFyGllYjRZDXTCNKF9XDxH0Uy7UPr/3PP0USdPneLp9U8zrraWWKyDa5cuJRotAQXXXnsNmze/wIb1T1NVWcl111/Plhe2UFVZyUsvvsiVixZRPmcOruOyZfNmenp7KS8tZfurO4h1djN//nyqq6qxTW3ynlA/AQOD5UuX8+ijj7J+/dN0dnZim7a2OgWFLIbPGdWPH8+xo9qCZIiR1Yw8H5BMJpkwYcKozhXAsqVLQSaRrotSDgLJkmuupvn4+yR649xxxxrwwrUWLFxAVVUV8+fP544772TixAbG1Y2jrraWSZMmsn79OjK5WqVcli1byi233MLmzZtpaTmBYQqKo0WsueM2IuEwDz74U1QQWTGYX19+j/za8fX09L486iQD5wryEq1z/VEGc9QbDlKpJO0dZ5DS0eEZgSMCpAfZ93wSWYKSX1Bj9uzZ9PX1MW3adBYsWEBRcRTLMrnhhpuwrBAdnZ3Y4QiuVNh2iE99+rNYlkk4nHY1sEJhSk2TtXfdjUIHQUejJdxx51rCkSIMw+Tee++jJFrC/Msv50xHB42Nh+nqilFZVUnItoNJF6TWGXTk0lWoq6qqOLD/ABlpw4bAcInhuT5j0nAdl0suuVSrBbzH8oWo4TzF/V+4n9d3vMLx48d4/He/49JL5jNzxkzC4SJisW66e3oJmSZ2yCaVTCGlorq6BsdxuWrx4qDOQMpxSKYcHMclkUx6OnaDqqoqlCLIyGEaBq7r0tvTSyqZzDvfBxud3OepqanRVc0LPEjcyjdS5/LjZMbjhcPhEROtRCJJW1srJ9tamFA/IYfT8uFJzZpSeX/r+1RXV3Pn2rUoKT1fLN0eqRQlpWWsWn1r4EPmSsldd9+jOTvP+VQqhWFa3HHn2sCXR5EuXnHb7WtwpUQhuGX1apSCM6dP093dy7hxtRw7fpyVN6/MDhIPumCQkVPaXp9yHC8VT+iscW/Z1zt/iJZvHMnM0R4EGgxjKr3x5hsYhl68Ksorka4CZTJ9+iwSznr+68mniEaKuPGmm9i9600SiSQHD71Hw+49LFq0CCEMXnntNTo6OnGk5MDBg4SLili+fDmlpeVYVgiUoKy0nFAoRENDA5WVlTz77DNEo1EcxxmgSM80EmYtsjnPU1xcNKo+O9dQsOKhlNKryjuyRwhHQsybdxGvvvoKa71y9eDbWnz3AZVBrzKrqqRN3YaZts7o2DKJP2V8P5h0aIZM+0vpK3sezfqbQfb5mRyUkpJ4PE5bWxtFRUVc9bGrWLp06YDn0ilrck3e3jMoF4Si/Uw7+/buZcVNK0cY8V84ROlsKC0r08VqgYGcdea3/Ojo6CDR300kEuGzn/0c06ZNR0rJnDlzuG31bZw8eZI+qwfpOHR197Bs2XKUgJ6e3uDqXV0xurpi3HDDjaAUXV0xTNPi9ttvZ0L9RJRS3HjDDUxsmEhdXT333nsvBw4c4NSpU5imSbmfOjlP+wbLpCq9eNlC57KgQImWjtuTlJeXZ4XjDAehkM2Xv/JFnn76aQ6+e0CvmBUVmKZJ0pFenUAvLY3yo/1VVhoaLeJ5AbQZhVSlJB3hrzyHTgSKjGwQyidT4Hu5+z46fkYzXxQ1PW5KGIJVq1ZhGAahUIiU49DW1hY4lPp9YvihJgIMoY9FwOnTrbS0tvLO/n0o4KKL5mT05bB6fER9fC6jtKSE3//+93znO9/BdXKIlt+Xg3BcQgg++9nPgkxiWRbCDHsLi6KoqIi777qHZCqJiSIUCrH61lsHnC9dya233h58xw/KV4o771irf5MuN1x/A8oQpJK6KtC4ceNobW3lsssuY1xNTVZ7MzEYs2gIgW3buG6+FDyFhYIjWn6Hx+Nxjhw5QjQaHdH5QghWrFiBYRg0Nzdz/Phx+vv7dRXfRJJ4IkF/PBmkKkkkkqRSSS/3koPrOl6gtuulmvGJmAJMHaQahPXrVCJevRaEUN77kSN2efKJzxlJV4ubATfmEU2U9k9T3sFC6Nxallfx2LYsLNvGti3CoTCl5aVYpk2su4P29naKoiXce8/d2CE7r/hwIcAO2Rw8cICQZZFwUyglMXL6Ifd19vcLIByyMJTvlOxx2gYIJTGEQSRkYaC0Q+gATxqBkXEzXZ5e+VNFj4fSmlTtVKpQruJw42H6evswLJMvfOH+IMOIb+nOsnirtLQgvBXQsgwqysuJx+OEcxJAFiIKjmj56OzspKuri/LykQf/2rbNypUrOXXqFI2NjaRSKf3S2zZFkTCRSJJUShMox3FIpVK4jhukHfHTG6c9oj0IO+3TBwGnBb43teN9ZhQdUwolzcCz2ufY/BqIAp0zyRcrLcvQVaykBKEwTU2oBGCaBrZtY4dsQqEw4XCIcCjE3LkzqKkZR21tHSHbDppXsP4uo4SfJmbNrbey47VXueGGG3BSDiozf1oeI0+63Je3mHhfXdK/AwjllwbzKokb2SFCufnRfI915RUnEDKbA1JKYUYM7r3nPgSComgxoVDI48zwCFx2BEeueBgOBFWdvwAAIABJREFUh6ksL0Up2Pj0ehYuuGL0HXiOoGCJ1qlTp6isrBwxpwUEcv348eMZP378gP0KFVjXhOdc6K9faUsd6cnjwXEUrpIoP/cSEun6SeN0ELSfkyk40Q+4TbcuSOImPE7NMi0MS0f321Z2dkztpzWw/f61DDGQcxAMlTPi/IYQgvu/eD9/+7d/w4QJ9Z4hxPD0kroz/f7zDSw+N6S8RI7CGzvpT4CAExPeeHopa8yB1aIznWqkrzUIiJfMGkxfReH6dRN9naWfJVf4HJp2Lc5NeWMKHW9YWzuO3p4eTpw4wZe//OUP3ol/ZBQs0Tp8+DDjx4//0BOaaQ9o12PdM1bZjNgw8CaLyA481plDTXRlPe96ZAuDg0lkwXxT2UZLH0FWFAb+PpBopY8SGZ+ZGpzC1Wh8MCilaGiYwNq1d9Lc3OxFJaQtsQPi/mQOV5zDOWUiN+334IVE0vm59DX1IEqVHQSPMlCkEw4qjzcOguW9XGhK+sVgZZYri2mZpBL9xDo7qKys5P7776empqag9VlQgERLCEEymWTHjh00NDR8qAOQmY5XL5o+ZzUwK4Ivznmtyt436N+DFLZQ6evnuk8ZGb/nXm/Awd5eAz+/UibPlR2sVNjT9oPBNE1WrFhBPB7Hdd0RLXz5MiRkKrYHSyzpfcs5018EB8s0kX0tN3fQlJ+3Pvtcgfa4Nw09f/30zIVOrHwUHNECnV7l5MmTrF279kO7ZvbE8zOJ+hxOtuI8revwJ6lPPTL0EcFnZh5UXx7IIVoi45gMPdjgjU1zTrnkMrMlfkmydMtyOLDzYw4PG7n6onA4/IFe5LReUw24fv7jXe+Y0WkTc8nlYC6KBgOtg/5ifD4QroIiWn7Hb9u2jXHjxrF8+fJRX8svKR5YYrJWyvSkkkpb/bJUUKQ5LY8Py/hdDZHxZejJapyFivje9IGoOOBwX+mf+d1byXMI1kCCd2HBJzYf5EUeHnc18PjRxP7la6MxSLPzLXrnA7HyUVBEC7Qu69VXX2XatGlDR7qfBUopTp06RXd3t65kEwoFrgO+slQphePKQEnrEwyfOPk/+DmtXE8HIUah5hb4xS30twHtFWhxABCGz+577VEeEZapLEVy5smRSISysjKKiiIXNLH6qDEUQfKthR8WAblQxzGLaPk1BHPhui7JZJKiosHDAPxzE4kElmVlKSUzU6GYphmke02lUgMKh+aDvyK2tbXx3HPPYZomt99++7AfMh8OHTrE7/7zP+np6WXqjFlMnDABy/a7Q3nVWVxdncV1cVzX89HSHJq2LEmvvJhnWVKGti4x/NQnPoQhMDOIUdY+tJLXNCydd9y0vNJR3n5hoqTElUmv9QSyg2GYnDrVxunTbcycOYvbb7+d8rKSkXfYeQqlfPcS7SjseBWeXMch6Ti4jkM8GSeRSJBMJoMKUP6i5VuDfeW4v7ilkzFqntZfjILc7uDpm4yAizcNU4+rp3+ybVtX3/E+dfpk4eWQN7D8eozetSzTQhgieIcNL1eXYXiV0M8n8bC/v59nnnmGRCIRZPaMRCJIKZk9ezbz5s3j0Ucf5f7770cIwcsvv8zFF19MSUlJIF7t3buX2tpa3nnnHS699FLeeustrrnmGsLhMG+//TY7d+6kuLgYwzC47LLLEEJw8OBBbrrpprMSLiklmzdvRkrJ3r17ufHGG5kxY8aoHlhKnQztX/7lX+jq7mHKlKmEisswIyXo/EN+TJpEmC5CGQghMQ0XVxkYQiFxtHlaurpSi9KCogKdW/AspcTyQ+AqEVgtM2EKqa3oSiKFQMoUCIHOPe/lGTcMhDCDUB6fKzQME8dxaGlpYe/efZw+fZqvf/3rWNbZhNHzG/39/Zw40cz27a+DEtSNr8MQBr29vcRiMWKxGF3dMfr6++lP9uOkUkiVDq3WtQbThhojQ+ntEwmBFSzgfqmvkKdH094SeuFLJd20/59ME0FfhPWv6UovJF7oeSJTKe3MLHWV9Wg0qreSKNHiKEUlEYQQnDjRjBAwZ9ZMLrvssmExCucyLNDJwX7961/T0NBAZ2cnb731FpdddhkAtbW17Nu3j3/8x39k1qxZzJ07l8cff5xvfOMbbNmyhTVr1tDS0sKWLVuoq6tj06ZNrF69mhdffJFIJMK8efNob2/nhz/8IatWrWL//v2UlpZy8uRJtm7dypIlSwZ0or9i9fb2cvDgQbq6unj11VexLItFixaxatWqUT+wUoonnniC5uZmvvr1/0F1VRWu6Rew1AU6jaDMffq1NgxdkEAHQ8tgdcxrAh+FziJoX57ffOdBnwdOW4vSBoGsM30xxHuRpkyZxrXXLuGVV15m06bnWbZsGQsWXD7qNhYq/LFyXZd9+/bx9NMb6ersIhKJ0tvbh2VZ9Pf309PTQ09PD739fSSSSYQpCNkhosXRoK6gZekag8LQ4VN2yMYyPa7ItnSFb8MK4v18whUORzyxXniOy/8/e+8ZJcWV5fv+TkSkqaosXwVVBRSmAAkrkMHIYOWQkAMk5G1P98yse1+/OzOvP7z77d03vd6ade9b6741a033TN+eVre6W61uOWQQEggnjISRASFQITwUlHdpIyPO+3AiIiOzsgxImiahtxRkReYJf2Kfffb+7/9WQGbTNEmmUg4zhLLwk8kkiUSCVMpUi2kiLYtEUqX2JGNxLCuNi3MoKgoTiZQSiZRQWlpKuCSMlJIjh4/Q3dPFju3bWLRoEY888sgQcIzLXwxQ1seoUaOYOnUquq5TVlbG3Llz+eKLL7jlllt47bXXmDhxIr/4xS+YP38+iUSCgwcP8vOf/5y5c+cSjUapqalh3759fPPNN7z99tuMGzeO06dP09TU5JWQnzx5Ms3NzXR2dtLZ2YmuD17h+PDhwxw/fpxDhw5x5swZ7r77bnp7e1m1ahWBQOCSHaiapvHWW2/xwgsvUFWtcrg8B6ktHECfY9K7Lk2RqVFoWdJzamdF5Pzn8m1MmNz7kYUPywU+uAdyeUvd+WJGvblBAl3Tue2226iqquTVV19l7tw5V51TxLVcent7+d3vfkc4XMyjjz1KwChyIsaZKKAQrmdSYgsPL0rusJK2LN800bV8M1PArN/Uzr1kdRl0+rDDMGrbKtbsMn5kqvQ40AanfJhbxVyTmSmgeyz1UC3VZx1f7Nzrb6Czs5NtH37AP//zP3PHHXdQ4+QvFqIYUkrP57R//36uu+46r5Dpzp07sW2bSCTC6tWree2112hpaWHatGm0t7cze/Zszp8/T0VFBel0msmTJ9Pf309TUxPjx48nFotRWVlJa2sr4XDYO05paaniFDLNvEpLCMEbb7yBZVnMnTuXSZMmMW3aNCZMmJDV5lKlqKhIlYXHYcySdrYecBHK+Pqe+68AaaeV/wHhc3pnh79h6ChSrtLN0Ej72ilIvocbw3Y9JLl+R4lwS2F5F+H4a6TM6DIpmD59Bhs2vJ+5qKtMcSHh3NkWvvjiIP/Xf/tHQuFibCuTxQd4KTK2ExuWwv114PN0FYye08J/W12bJvO8c1u5Ti3pBHJUkrx0lFhuOFrz0QpJHwDaG9iE4gqzNdf5L6isruG+Bx6kraOLr77+mluqqy+S6ePyEQMgmUwSCASorq6mpaWFY8eOUV1dTU1NDZqm0dfXR0tLC7Nnz2bmzJkAHrLWnT5+8cUX3HbbbYRCISZNmkQymWTv3r3cc8893HbbbcTjcVauXMmxY8e49dZb2blzJzNmzCAUCuU9sa++UhVtysvLmTJlCrW1tVm4mG8Tph41apQCFep2JvzmdFI/5EH5HPCsH6FJ4vE4rS1n0TTlnxhVW+uZ2lLC7t27KS8vZ9q0aYNPE4XmlBLLXE9NTQ2RSCT7upxzs6StyNuSkpKSYtWtRcZv5SlWkftauTgN9ak7uDK3gtFVqbOk4OzZ88y7aQGhohIsKXzKPlu8aj2OJSR8zzN/P8yk7QzePwWZitPZg4yiccxY/U7rPA9JeB/S2S5rN04ZPCvrOzACIZ5+9jk6uzoGveZCEAOgvb2d6upqRo8eTUdHB1999RVNTU1UVFQghGDWrFn8y7/8C/fccw/Hjh1j8uTJFBUVceTIEe6++27GjBnDwoULOXjwIF988QU9PT0sXLiQ2267Ddu20XWduro6du3axalTp9iwYQPnzp1j4sSJhMPhvCd2/fXXs3//fj788EP27t1LTU0NVVVVjB8/nkgkQnV1NaWlpZd00dFolGg0SkWoSHU8JwKouXgGb9zNwd8gOX3qFK+8/Huqq6uwLZuZM2eyZOkS5Ri1Yfeu3TQ2jmP6tGs9S82lxvWcr1aaTZs20tvXRzwWo6qqiqVLlzJlylTH0stMNXRdR7ckO7dvo+NCO48+utY5PYFX2ML1r4EXzRxMLMvyqtEUcL+9ZBEanD13lkWLFnnfDQFSyFlTN+zIkcNMmTJZFSUhW6e0t7fT1dXF1ClTBrm/GcyfbdscPnKY2ppaamtr8xw7swMXVxgMBh3ryQ9syT2QzPk281djYyPtHcNxzF/eogF88803TJw4kc7OTmbMmEFRURG33347DQ0NHDt2DNM0aWpqwrIsTNMkFovR29tLPB5HCEEoFCIUClFcXMxTTz3F3LlzvbqEwWCQPXv28MYbb/DOO+9w8uRJ3n33Xb788kv27NlDX19f3hN75JFHWLNmDVOmTCEQCHDhwgXa29tpa2vjyJEjvP766+zZs8erYThSkVLR3XZ1dXnfiQFLpsypf5FSccTv2rWLUaNG09/Xx+9++1vMZIK+vh5279qNoRmMHVOvJgrCJhrrZ8eOj9i1aweff/4ZR482I7EZPXoUppnkwIEvqK+vIxwOkUzG+ezTfRw48AUffriRo0ebEQL27t7Ja6+8zEsv/YqPPtrKvv2fYKYTKDYBC7d2tRqd8yyZUsnYtnXRZdeuJBEC2lrbKC0tzcATRP7Fq9DtiFtR+he//F9E43H/bfXkq0OHWL9+PZadW741d1GO+DffXMeBgwcHO1tvaWk5z/r175Ehk/Sfq8hZVDFZId0lcxmWZXHhIkuoXW5iCCGoqamhsrKSSCTCmDFjmDlzJqNHj+bxxx8nGo3S3d3Nj370I8LhMM3NzfT399PX18fEiRMpKiqir6+P3t5eZs6cybJly4hGo7z//vu0trZ6im3p0qVYlsX06dMpLy/36hYOVgJszJgxjBkzZsD30WiUM2fO8PXXX/PLX/6SH/3oR8yZM/JImJQSwzBGWOQ10zm8dSkJhkI0No6nt7uHtrZ2pIRYNM4XB77g+Mnj3DjvBjUaCnh/wwfs/WQ3Y8eO5dTp0zQ1TWLqlMmsvOceKsvLaDlzlvtXrkRKSXt7O7/65S+Zes01dHS08/GuXfzD//EPHDp0iJ6eHiwrzaFDh6ioKGfWrFm4L4A3axkBQZYQ2iVPrQtenNtTWlaKmTYJC1cBjPR+qLbbt23lxPFjgGD06FGMrh2FLW2avz7CuZazpFIJpLQAFWg6c+YM3d3d1NXV0d3TzeTJU+jr6+XUyVMkk3HARgjlsD/a3ExpWama/VTVUFdfz7lz59i2fRsv//73TJk6GYFg0qRJGIO4Vlzx6KQ915lGKpX2/HCFKgbAzTffjGEYzJ49m0Qiwbhx4ygvVy+GEIJoNEokEkFKyaRJkxRnUyBALBYjHA5z3XXXcf311xMKhTx2zbVr19LV1UUkEuGOO+5QjKDptAcudbEnF5OsKqWkuLiYqVOnMnbsWH7605+yYcMGZsyY4eHFhhMhRBbEQgzwA/kbZystd7oYTyTZuXs3Z0+forq2BtuG8vIKlixdzNFvmmk534oUOqlknD/84RUeXfMg06dP53/8j/+XspJiNGfqF9A1sC00x1KyzBSHDh7krjtu54Y51/HTn/6U/p4eFi9ezMGDB7EsmzvuuN0LuWed/whhFoFAYEiQ8JUs7i0aO3YsVvriAcDuIKFJyfvr1xMMh5HS5umnn6GkpJgdOz+iq6tT4eiwQGgcP36cV155hZKSYsLhMMePH+e//d//SFtbKzt37SAe7ycUCoAmsdMWv3np14wePZpkMkk6neaFF17g66+/Yv/+PbR3tLJ9+xYEOmPGNAyvtHxnrUTDTFlE+/sL2pepYSmq2EAggK7rRCIRLxzqjsiuwpJSUlJSQigU8toahkFJSQnhcHhA9KyyspJAIEA4HKakpITy8nIikQhlZWWUlJR4x4XBI21+cUPRQiieoMcee4z9+/fT3t5+URftnosHdSDbe5FryGfdME0jUhJh4fwF3H333Zw6dYqvv/6a4qIipl1zLdVVVR6pYDKR5MKFVpYsWcL06TMYNWqUh1bOOHGlByR0n8G8efO46aZ5KIiFxcSJk6iqqkIIwaRJTTQ2jvP2I4QLaxhZN9R1/ZKIEwtdMhRDUFVZ9a2myFJKysrKmD59Gvv372f//v0IIZg8ZTKRSITPP//ca7thwwbOnz/PzJkzaWlpYcuWLYCktDTC5MmTOXDgAC0t51Sk0LbZsWMHra2tTJ16DVu3buXo0aPU19czZswYNE1j8pQpTJ06hWBoZIN0riSTSc6cOXPJ1345iIbPcTsYp5BfBkv69NO6ZFG8fI8yfvx4hBAcPXr0orYrKSmhuro6EyrO8U0M8G34REoIBgKURiJUVFTQ19dHa2srXV1dHD3aTHdXF+3t7Zw4cQJNNygrK+ezzz7j1KmTdHZ2IoQqCfXNN9/Q3HyUnp5evvzyID09PVkgRJUHmbnPxcUldHd3c+TIEY4ePYpbCCMT8h5eaSlWVIuKiqtPaQEqdiEU5KW7u/vSdyMEDz34IEuXLWP69Bl8+eVBDCPAbbfeyuzZs30QBDh48CCLFt3GkiVLWLx4sRdpHjVqNEuXLvEGey8OaNssWbKEFStWUFdXR0dHB9dee61X9mzJkiUsXrJo0Kj7cBJPJOjs7Lzka78cRPOnig+lZIbj4/FbQZcil7JdcXExjY2NNDc3X9R27hTJ37n8i2tiZdYzK6WREioqytm+fRu7du6kadIkJk9u4uSpk+zcuQshNHp6e9ixcye60Hjo/gf4+OOP2bTpQzo7O3FZTHfv3sWxY8coKipi+/aPaGtTlVamTbuWgJMDOWHCBHRnGnjjjTcwceJENmzYwKZNm0in05kTdRbX4TrYAirPbrCI7ZUsfgxcKBzETKcY2qYeKG54RqKRtqG7u4fW1jZqamo9FLsbGFJ5imnC4RCtrW3EYnH6+hyoiS1JpZIkk6qOoZvb61rf7vTdBVEDlJWVYlkW3V1dpFIpbNvKc/7DXYdNOp30mHELVQw0D+wxIO9tMCtrOPm+LSxXVFpEiLa2tovCbkWj0ay2ds7s3+UA9/zbPtaGiRPG8/DDa1TU1AhQ39DAhAkTOH3qNBMnNtE0aTIpVCJ1SSjMynvuZd/+XXR1dWGaKerqRiOERmNjI2PGjFXHkZKyMlVZ6PHHHycUUp32scceozSiolzz58+nuLiElnPnMAIBsgLazrXkFmgYIAJi8fhFR1yvNDEMQUlJ2Be4yDzpocTFNoWKitnwwSZsSxU+veXWW+jq6uKjjz6iubkZ0zR59913mT9/PosXL2bDhg28+eYbNDc3q36qCbZu3kp3dw+2bXPo0CHKKypYtnSpwuppGgg1KIdCYXAc72PHjuXVV1+loqKCxYsXUzNqIFX4kCJsNE0wbty4i9vuMpPvReX+R0WnpFS5gKZpZn031PGllHR1dWWAnS54L+uFz8W5ZL6vrKjg9uXLnKmWqsCiCY3x4ycwYcJEQGAJCRLCoSIOfHmQC60XCAQCjK6v4+ZbbkE3dG69bZG3T8/dIuCmefOwpMLgzL/5Zu/IRjDI3BuuZ+4N1+ec5QjFmWru27vXwxddrZJKpSgrK7skkLIAHn3sMUzTxNAETzz+BI3jGrlwoZXe3l6qqqpYsWIFsVgM0zRZtmwZ/f39dHZ20tbWRrWDRI/FYvT397Fy5Up03SAWiyE0jUceWUtDQwOaprF8+e0OMYACHz/99NOcdiKRVh4G1ZFIIBBgypTJl7Tt5SIFaycOxdU9lAghmD17Ni0tLdSPm+BNab1UGbVz1TZ3WzJcWUKA0PzaTnrfY9loQpBIJkhbFql0muJICc888yxNUyYroKlw/YCZA3lXpPlSop3ctXxW7wBDYdCLVsBZ07LZsmVL3mKvV5P09fVx/PhxRjVcisUh+MEPfoCUEl1IdC3jo3riiSd8z0n1jWPHFDSiuLiYlGmyapWqbbjSqYnoskS4mz3++OPougqyrFixwgm4qAd8z733YpqmQ0+ke+7oi9G78Xis4CEvBau0gCz6DleGs7KEENx333389re/ZUJPH9deOw09qGFLW+XvgVOiy6mak7UD20tCTaUyeZMecl5oDhlfpoDrvJtuYMGC6x3wp01fX39W7pifh8kFsKpqQDLLAhSa5nRmD3+BhqYKujppG4bDxQSgOVQomqbhJn7v37uPaH8/96y4+6pEw7sSiUTYtGkTs+ZcT0lJROX5yQzCPHeanSniqnxGuu4oGjJk2up+atlZFELQH41y9txZhBAsmL+A1avXAJrDJOIMfllTfVABFokmdLzsB5yCq0aG7V94/c9fhzHT3vYGQ+koWfjywEGuvXbqpd+8y0AKWmm5Cdh+ksGhxFVwjY2NzJo1i66ePk4cP0Zvbw+xWBw0HU1XlXTceoemaWbK3JPJxk8kElnTCyEEUmhZ+YRSqlqEHiGiEFlJqu4oq+M3lhyF5UQFzXRafetTzDaZyKwQQhWykBIhTS8CaRgG4XDYiUKqSOShQ4d4eM0arr1mqurwV6nmGj9+PJZlseOjj1iwYAGRimqkzLzk2UrLny7jlOry+B8GQlNtv9kr4dpp05jYNAlNaIQCYWXxplR/tT2lkycan3POAgYO0CiLXuiK/sbSnFkAmu/ZCsDCTJt0trdztLmZJ598bGQ36jKVglVaQqjyTqZpjhhY6m4XDAZ56KGH6Ozq5rPPPsNMJZSJ47zslgQzZSrUvqE7tQ9lhltBSkqKi5HSZyVpAlDFUjXHkSoQ6IaKdQghEJruC9Y6pHGGge5MUXNLUCmLLhNhSqfTnkXgThtty8JNQLTSKc/61HXdx+WkkNkrV97Lvffe600/rlYpLy/nqaee4r0N79N64Tz148ZTVlqKjY6UNsJGFee1FWOtLW3SadMp1mth226VcdUvDN1A09R9NgKK+C8UCmM41b/V+CA8sj53PZclOJt1IU8FKNRzd4GnyUQCK50mmTKxbBvb5V3TDSe1LkwgYJBMJkkmEkxqbGTp0qWUlZV9vzf4e5b8SusyH4Bda8a2FfvBxSgtwOsstTXV3L58WWa/QhnelgTLVspB14SnaNzb4nY1V5lkaGXEAHK1fHi23OuA/Bg5f7vcKfBg02B/W/WCXBkUu9+lCCFYtWoVkUiETz/9lKCuUVIURgpNQUksgSlSJE0bQ2jO4OAU4rVtbMvCNFPYlhogbMtCEwJN15B2ANtKowFWWsN0lBRSIm3FeCshQ9lMxorSyOD0XGvZ/6kHFOWypUuQNqYGKTuNZaWwbFWrU9d1dGxCuiASDhAIGOi2TdjQmTN3Dtdee82f8c5/N1Jwlpb/5XWnhd+GriZ3G1s6VU50x+eA55fPnIPPeHeV1GDHvhjYiF/hDLXdcHg5yPjK/qKw8othGKxYsYI777wTy7YxjAAIgWUp9lrbtrCc6DBOXqBXJBXHb+lMsW2nMrRLk+wulm1jWzaW7dApW2nSaWWlpc20Zzl7k0HHAtN1DU13Kovryno3dINAMKC+13QnuKL6XobiWfNqHKrtleNB2jh03DgBoMveLhlSnAQ2Z+0/Bl71nYl/SvVdvJwCpbCkzC72lS96lyvfhYIYqeIb7jxgYLXjv8hAcS1jf/6rbrhPPvPdYJDNXKSMIPtVygR3pec89/+db3/2EC+h6/rXcEv+Dj7Nzwx+mmJ8yI4PFLQUnKUF2VOpfNWDvtW+GfhQB1g9+RBcOdO+iz7ud9CThpqKfh/HK1S5VHzWcN+JnL8zsTyRpcwGO7Lyig6ewO9a+PkQWoNd038U0Ps/UgpSabniKq1LeTDuNtFolFgsRiqV8iKFfvpad8lXDn2w83Etv4uxdi72JcpVksPlesZiMXRdp7q6mlof2+rVKCOdantthvltOLhcjnt9RMey80zhlBsk/wldavZKIUrBKS3/w3Dn8SMVvwO/vb2d/fv3c/r0aUpLSwkGg6qmYdryTHRXgdmuT2IIVlBXUSmnqZooGLrudLDsiKDrx5C2j2Hep3jyKZ/cTpilWMlg+AdLej916hSxvh6amppYvHgxkydPvqI79sXIYMp+0GBHzrb+pPrMNNAL6oKdKW7hf27q0/sn00s8eIwfA5g5rofXG2HXv9J8mwWntPySa2kN5sT2twc4d+4c7777LhcuXCCdTjNx4kRCoRDhUBGE8ACkrrgg05EYdPkO7d/O9gFPczuxW5rsYi1HS6ginkjNq3uYS/ZXWTOaaG83mzdvpru7m7/+678mErl6i7amUikOHz5MT08PMNAHKIRwYA22b/BSlMeWyolyCvqmsRzFY8vsgq2uI95OW9iWpRSZsy/Xke+vdegcGM15nppTnszz2TrR7UBQR9N0wsEMp5pbHd310bkFXkH1ubq6OiZNmnRFWNgFrbTg4s1gy7J4++23aW1tZd68eSoXTDcczeJwXQl/Wk++KMUgx5Q+P4b/BciztbfuKq2RXI+vrSaE5x+xnY5tyeyXzq8tJ02azPQpk9i1axcf7djBDTfeyJLFi6+oEXikkk6nefnll7nQ2qYwS0LgludybV9N07xIn5VWWC3bjQb6XAamaWJLdaszCg6EcJWR41pw+pOXuuV82lkDlHTwXq6i0jKFX0Vm0TVVhDcYVFAfDw/owCOCwQChUIhAIIiUNqlkkpbzFzgBTl36AAAgAElEQVRx4gSLFy++Moq1Fqq4VXtH4m9yxbZtNm7cyI9//GOKi4udlx2ywXyuSe6f1mX2MfiLrvkaOtMEKVXWvt9y8/Yp/ZMCNzlj8JP39GdmOwkIqUFuVRmZqyqhrLySJUuW8XXz13yw8UMWL1p01SktKSVvv/02mzZtYvHS5UyZMgW0TP1Nv7We+11G/PfMb0Zn5muqiKuTHSEG8zll6lM6O8hSUG6fzI2Ou5kZ0nWNSJWf6Pm8wLO4ASwzRXt7G83NzViWxd133z2CO3X5SsErLcMwslgehhN3NBo9ejS9ff2ojuHmbrkPWsvyIQBZ/XRwh6vmtfOHu6UUWcoJ32/ZO8gfOXI7rErvUfaV+nBBNwO3kmT7MZQvTyNUXMLipcvZtm3bVaewAJDwT//03/nJT37C2MYJasomLi4C7RvKcjpD7n4c5eKOgTmWsPQNbGq/uYNvpjNJ335s6RzHy17LDGHu6Vh2BriK0KgdXUdFeQX/8//7nyxdvpxgIFCwWK2CVlqDpb4M9zI2NjZ6WfKayKBrLK/z5u/EbueybdvzIfhBnHlxMyJPiFpCZ2cHpplm9OjRXrvBlGE0FqO7uxvTTFNcVJShw8adztjKKMxRXn6lqAkNS2ikbZuma6ex+aMdV6XSklJw4sQpZs28js5eVQlKjtSj7e7D+dRyE+pz1ICda135jiMlSC07GihyaXJ99TcFAsv9WbjHH3hOg52rZUkC4SIutHUQSyYxAgEK1btV0EoLGDEcwS+hUIhEIpGxYLxfhnmJHSd5Z2cnu3buUgVUNcHNC2+mvqF+2M39cuDLA5w6dZonn3xSHXkIBdLV1cVrr79Gx4ULzL/lFu6+S5n30l/eapjjudMGKVU1oksr7HBlSHFR8XdaRi1PrFf961YqHzCYKF+WluPtzHYsZES1Vb+4vsqLC9UIZz+uD62wB6uCz5x18w9HKkKoenMXLlzIKArP2MpYXfk3Vi/9BxveZ9OmTZw9e5Y9e/bQ2noB0zRJmUlcbuNkKkE01o+ZTmGmTfr7e5HYTnVfydlzZ/l4z8dEY1H6Y/0q8uT8Z6ZTdHZ1EI31g5CES8JUVJbz4eYPaTnfgi1sbGEjhcRNkx0wSOeIh5TXdWxLOtQ73z+P/+UmEhU5TDvsGd/JPoXDvCHU3x4ts50f/d4X7efV1/40MD1MoLjUvNmCsuTf37CBl//wBza89543M7g4tePsS6ppY6Fb2AVvaaXT6QG1E4d+DQWJRILm5mZuuGn+RR1LOTptdu3eRVVVNU8//RSnT5+hoaGekydO8Pnnn7Fq1Wp0XWfTpk2EQmE0TXDmzFn6+/upr6/j2NfNPPX8cwCcbznPH//4R1KpFLNmz2L+vHm0t7ezceNGOjo6CIXCrF69iurqap544gl+9asXKSoqUo5Z9zp9eneo6/aPzVY6TTAYzHI2Xy0ipT1orc3hxMtxVTtC+Ral8kVKiXBLzqGihcJBa+XQXNHX28vPfvYz1qxZg3QtLpHxD9jS5VazkdKmr6+XTZs2Ysk096y4C2QmejzIVTqHU+covDOBoqJixQxSwFLwSgvImh6KIR8mIATxeJwzZ854SutiwHeaprF06VLeeecd3nrrLWbPvo6amlra2tr4wx9e4eabb6GhoYGXX36Ze++9l8OHj7Bv3z4aGho4deokX+zfzy2LF2EYBl1dXSQSCbq7u/n1iy8yc8ZMPvjgAzZv3sKNN97Arl27KC4u4sknn0TTNGzbQvqv1bkeT4kNBpJ0Pj2IhGVTFAp79+tqkqHu00gkmUyyYf07JBNJpBSMHz+eGbNm8u769TzwwH0Eg0GOHz/OwYMHWDBvATs++ghp2YRCIfqTcW688UbCRWHi8Sjr1r1JLBalccw4brnlFiSS7ds+4uzZs4RCIW699VZGjRrF6tWrOH36FF8c+AxhWwjbYdsdNICQceyr6aSKLkr4C07rzyF+kj33hbsYVLwQkEyZxOKJ4ZVVnjmXEDorVtxDLBbn+PHjfP75AYLBEE1NTdSPHsvWLR9xx+130NnRw7wbF3L4UDMlxcXMnzePcDjMubPn6OrswtANaqqrefrJJ+no6OG5556lt7ufnR/tZsG8hTz33PPYadj4/mYef+wp5fiXuuqAtuYoKzKjrgTIP+XxRx+FEAQMnYucX1wxkh24ycXgZd+UPCAVDn15kF//5kWWLltGIBCmNhnHkpI/vPIKY8c2sHDhQj788EOOHDnCmPoGfvGLX3DzggUcO3acorJSent7WblyJVbK5OjRo4RCIT7c+CHjJ4wnlUrxq1/9O7NmzeLc2XOcOHGcH/9vP/aYG7zospDDugPU6appoWfzSUk8HldMFgUs2W+769JxbckCkYvJJbMlpExTAUoZzsoSeRYNTRg88sijPPXUM7S0nGfPJ3sIhYpYtmQ5WzZtY8P6D5gwbhKNYydimYpmORQIENB1UskkSIkmBKWRCMFgkEQ8RShYjIo/BsDWSKdsBAbSEghbR0idkqJSEjETKyWxTAm2DraOtNTnYGecK7qhI+3CniJcqmQzdgzd4TO1L6XjTLfo6ukgaSYIFwWZNnM6s+deR1l5OfPmz2PdW+tIJBPs37+fW265RflbTZPly5cTLgozc+YMTp8+7fW5R9Y8zPPPPktvTw+HDx9mzyd7ME2TF154gTvvvJPXX3+DaCzmAVAzvjM5wLmfX5y6mMLF8An6evsLXmkVnKXlij/HzrW8RmJx2bbid6+trc34dJxhKx+SKldSqSTvvPM28XiCcChIOByiqrICpGTBwnm8/sarvLnuddauXUswJNEDFkKz0Q2JLdNoGug6CGHT09PDunXrOHniDHPnzqasLMLNN89n67athIuCfHX4IMtvX4LQJBKLm+bfwL79n1BcEmLMmDFOgQqJ7YIQh7huP1BSTTULu+NeukiCwWB2mtYwVksGiqAxa+Z1rFz5AK0X2jl5agMnT5zgycef4P6V9/Bf/+v/yYEvvqCjrZ0br7+BC+db0DXN4+sXErBtpGVhBAKMbRiDaaYIBUNYpipXX1FWTklRCXWj61Tqj20p1SqESglyiAeF7vdi5l5AdlTcw4FJm1QiPqz/83IXI29Pv8ynDrnWkV9xOV8MtTXFxcVMnz49M9UcFIueE6p2nKtmMklnRxuhUIjFt93KTTfdiMCmurqc2dfNYOMHG7n5lnnYJLht0XwmTKxjytSJCHTuf+AeGsePIZlMsnjRIi5cuEBpWTG337GUkkiYO+5aRtKM0dvXxdw5s3nggXsRmgXYPPzwKta/u56u7naqqsuRpFVEU/VqZ5qYvztm8DoWpSXFI+bVv9JE1zUvjcWbHA6ntMhYZn19UerrxlIaqWDzlg9IxKLoTzzOlKZJjB83jldefpn6UaNpGF1H2/kL6L4c0KBuoEmBjgaWzc4dO2hrayWdNpk4YTzlZWVseG8Db77xBidPnmDWzJmUFBWjIZgwfjwbN2/kvQ3vgYR77r0HMZzSyvlaw0ZapvJ1FTDyoWAtLb/40xxs2x5SaWmaRllZKWPHjvUh6d2RyVVeg49DoVCINWtWE4vHsSyLsrIydF3n7Nmz7N2zh+7ubu68605qa2uRUrB0yXISyTguFe7MWdcpBL6UTGmaTjyRcIpyhhBCePXtEokEoWAII5B5RNOmTWPc2HEITWQR17kyqMJyo1FkcFoXLlxQdRu/Yz6yy16kb5AbqhF5Ew1oOXeOgwcPADBubCO33noLCEEwFOauu+7mn/7pn/jbv/5bNF2nvKKC+fPnUVZezrTp0xkzbiyhcJii4mKuv+FG9n/2KWYqxZqHH2ZSUxNjx6VYfvtyvjh4gGAgwDPPPEMwFAJg4YKFfPrFZ3y6bz9FxcWsWLECxEgDSJnUJE3TCASCQ4/rl7lcEUoLRh4B1ASUlpZy8uQJr8LzSJWWu/9AMEiZUzTCPXZ7ezsnTpykvr6eVatWKaUiFWNkUTiXTUEpCsOAouLiAcfQdd1jYPBP64QQREojA/PinFFzKJPfsxWExtGjRzFNk7QDfbjSqEuGEinBNE1fQnzeVkD+nydPaaK0LIJt25SWltLU1EQimeLwkSO0tbYzblwj8xcuBAH1DfU88dRT1NXVce/KlRQXFZFMpYiUlfJXP/wrLNuioryCCRNU/c1AMMhTzzzN8WPHKYlEaPT6J9TV1fHC8z+go72d0srSi71qQFnZyWSSkKMIC1UKTml9W2yRlDBnzhzeeustXnj+BQLBIEgLhC8tYgTvb+5L3tg4joceeojaUbWUuIoop81QkASPh8lrk2+0z2CERKaJ2l4OPc1xHdBtba3s27uXcY2NWcnBV5OMHTeWU6dOMbZxUs61D25huTJq1KhM6pUjvT39bPxgI2YqxSNr11I/ph6hC4pLSpg8ZQoAkVKlaGypmBxmzp6F9NLIMmqyuCTC9BmzvNNRZIA2CI3GceMYN24cylCXw7hB8Plq1eeBgwepr68nECi41z5LCu7s8734F6PEbAkLFizktddeY/369cxfsIBIJKJ4uWwVWra1TN24QVHjMgPYFAjC4SLC4SIEgng0rpoMiKz7OppLUeIoy6E4wAYj9vNyIZ2v7SH6cF9vH2fPnqGzs5OOzi7uvGtF3inmlS5CwA9/+EM2bNjAs8//MOce5Lew3Hs9GG9bMBRi5oxZjGscy6RJkzACutM38kFmXNiC8ONJ3V8d6Irmrmadj0fbLNXfw4ZShELl6wg6OzpYt24dzz77bMG7BK6YXjtSC0wIqKsbzXPPPcebb77Jjh07KC8vp7S0FCEMpJQkTZNUyiRlmqTTJqY5EP8kpUPwZtue8spEaVxHaKZaEA4A1O0w0kFKBwIBh+jN5/B1/jYCAaeOYoYYDi9SKDACIcWO6ibeeqH7nFdBCC5caKW7u4uGhgbuXLaY5ctvL/jOeykigTVrVnHixHH27v2YKVOmQjCn4reVIfOzLIVK95f8guwSYFIKmpomAZKzZ057yPgMPxvoTgUdfwJO7v0PGAEfGBSf0nL3l62mVDcTDMjG85SqRiKR5NyZ0xw/doxrrpnKAw/efxF36/KUgldahmFclMUghEIFL126lFGjRnHo0CEA5VDXdCxbpXkkk0mSpomVTpPOSS62wSkBZWaKdnojsSQzUqZ8x1XjpNAy/PGG0AgEg07p+uxOLIQgEAj6Cq5qWSOvlJJgsNhjm5BSonmJtNkvmBCCytJiqqtvoLq6mpkzZ2YAi1eZCAHFxWF+8IPnWf/eB5w5c5JIeZlXO9OybGzb8gqimmYay0o765ZTsFX1Edc3ptAjmeefq7RsR2kJH8cVObM7IQRBw3WQq+1U+bJMG13ProuoBwynKG/Iq42oaToBXcelWzJNEzOdonF8I6tX3UdFeal7+IKVglNauU5jt/y7K8Om8aA6i2HozJ49m1mzZjlTMN/vzudg5reUkE5bKq1G5v7mmxaIXAvNUS5CU7XtcGl0HdN/gA4RikDQd16SDCOmEHr2Nt7In03p7E4xr0bLajBpaKhnzZpVHPryS0pKSwcU/E2ZKWzL8iytVMr0mExdxlL3b8W3mOGBz8VPeWu+h+XSa/tF5JACaj7XAIBhaAihOeSXmqKXcZRWMGCgaTpC1wg4A5m7j0iklOqqKsKh/AinQpOCU1q5LI4uP/alOOfVrC2P3yHnM992wYAOeRiJlM5yzyX7RXCnBoNmjOX1nWVbTMqX4ShuCVl6yLsW3dtfrv/Fr8SudikvizB//k15lXnu4DhU/xrKl/htRctRfGSt+d4D3y+5xDWuL0xkfVe4UpBKyy+5lZS/LWvB9/lgR7K/oV6U3Cmff4eDwRZyfX1/UVjZMpj1mZvfOtQ98+/h4npfbuuBlDPZsU3pKKB8iizT/mKJawpNCk5p5b6clmV9by/hpe1VDtpzhzvN4a5jqBdoqG1H8uL9RQbKSO9XVqtvNWgOjpfLp4yu1qdZcEor96GapvmdVhexJQjH13CpVslQyPShJDe07k9Pyge98J+f32LwTwGvVizWn0v+cp+/fyk4pZVvGnQpHcX2yjtJ9uz5hHPnzlFUVISUYJkqeuhRuTg15FwlkFu7MDf5eCjllJWo68P9uAysbig99zhuzT33el2KFTea5J6jG1ny170TQlBWVsY111xDdXX1AKfzX+QvUkhScEoLGNaH5XdK5lsHSFsWLS3n2b79Izo7u4j291NeUUE6naa/r4fu7m7iiTjJRBIhVJ05FUVKkXYUi0s9YlsWCIEmVHVpF/aXhax2874MI2ueqDlpO0ITpFKmzzLCC1sr5SQwdAPhVNV2IQuaphKAA4EARsDAMNRnwAigG6qN4bT9dP/nXHvttSxbvoxgwLh65xc+kb5/3RtyRd4WX8ZEoV9fwSkt/3RJCEEymRw4PXQwMIMpLQn09ffzb7/4JbqhM+/G+VRUVBAIBrFtm1gsSiwWJ2UmiMfjpB08TtpKK3yWtJ0UC1Vh2KvGIxSFseaQ8WmDKC3hFeNUWBzdMJRi0VTBUK9tIOBN+3RdJxgMZuriOXAJ4VNgaKocWq7hqWkavb297P94D7t2fUwsluChh+4f1sd2JYuUkgMHD7Jz106EphLhA0ZIDUbpdJaVCwxYH2q/kCEbzPUn5nP8+y3n3O9zj5nrOhjSX+lsljZNUqkktqZx7733Ujdq1JDXcLlLwSktyH5AuUUtXH4soee3sNz1/Z9+yuHDh/nP//k/UVJSrvBPEnRDo6y0nLLScp+p5JZwUp+Zoqg5PiZbTbs0BqnD6O/wQ2qMYZFmOa1d+t3Bt6ioqmH58jv45ptveO21N7h9+e2UVRQPvsEVLmfOnOGtt9+hr68XzdAJhcIYgSDStkmnUh7ezrYVeNizyYZ8NNLLfDCMgDfAgPAwV5queQOO+xjd+p25UB4FLs3N9MgoLd0HIlVKD/x9w1WPlmmSSMTpS8T49W9+zd/+9d9QUlJSsBZXQSqtXKpll/faP7WCwUGiactm8+bN3HXXXZSUlGDjTsUUwsXlpcqA/dyimy5wVcu751xw4AAZqWkzHCtljnaSbuceavdCYOgBJjdNZfr0mWzYsImH1943svO5wsS2bX72s5/ROGESd9xxJ1LTFXDXqYSDS7QnsutajsR3mgHy6llVnnN/9+9Lc6b8+drl9iX/PnMtLaWzfPt1upEmwLYt4qk4mzZu4jcvvcQPf/RD9AJVWwWptCCjoNxRCvyh/fzbCBRdrZlKcerkSe5ZsdKbavm3v9QcB8+xLgZVW99OpPO4POfE8OyjHpeWVAwDadtm0eLFvP3W21eh0lLWU39/lA8+2MjP//V/Ydk2aal5YF0BHmZYQpbFnn9//k+v/g62DcLKwdkJf9tvIbmDmrPq7/d+40xzVowA3Hf//axZs5of/uiH3/48/kxSsEoL1Avpt7RgGLySs6RMk2g0SlFRJv3H7yvI9VvYUmasryH270b4goHh+anSaQsznUITGuFwWCXn2japVJJQKJAf9ChzH9fgL4BK8pZomo4uBB5OWkBxcTGl5WUkEomsFKgrX9T9iscTjB07DtsWTnKyrkh/nNs5YoS7N2i4n84zcxKec5/gd0dwnbOnPA72fFZ3Op2is6ubWCz2nZ3Jn0MKLhkt1xHpmta5tCGDiYbASqeJJxL5929LPv7kE1IOq2lzczNHjx7NRpXnbOMqw5aWc7z6pz9ipgfxaTmSSCR47fVX+f3vX2b9+vVeztqpkyf591/+O93d3TknpaEelchaVO5aDsOEoyx3797Nli1bvekNTkvdiV4GgsGBx7kqRPklFbMswMBpn1Nvd/AFpxyrdBYkSJtUIkHaNJ02A9shnRqItiQei9HX04uZTHn7jUdjpBLJgcfJXXLOx3dp3hKPxlQVcf/7IDXSaRtdNwo6YbrglBYwrD9gOLFtm3g8npcfKZVK8esXXyQeiyGl5P0PPuDjjz8GFPreNE0SiQTSllkRn0QiwfnzLbzyx1dImxmllUqlBkSejhw5wltvvUUqlfKKTKQti2g0yvkLFzwaaCmlk5gN8VgSpagAZ/oRT8RImSmvrUrkTROPJ9i7dw9bt23NZhZw9J0UIDRBb2/vRd23K0Mklm05LoWBPiMgZ2jIt+RTJJJPPt7NoYMHBrTTnEVIQEo+/+wzXv7973nj9dc5duwbpcyAd95+mw83bfLWB1VaOeeTe962ZfHqn/7EhZYWRQ7pKS5NKS5b5r3uQpGCmx7mjoq5oeWRiJTSqzKca5mZaZPDhw97ZdNPnjzJuHENpEyTdW+tQ9o23b29XHPNNSxavIhoXy8f7dhB64UL9PfESCZiIFV9ua1bt9JyvoVIJMLSpUuprKxCINm2fRvjG8ezdu1aSh1a5T17PuGbo99QWVnhTXdjsRjr33uPoFFEa2srU6ZM57bbbiOdTrN9+3ZOnW4mFApx47yFTJw4kZazp9m5cyfpdJq28+fQ9SCGk3Lrq0ntSSIxgtqPV5hI5yX200x7d0VIVe0Gie4MJrYt0XUNy7IdLF1SwU8CARDS60sC+OST3dTXNzBnzlykVAOWlJKgEUDTVTELKSW/+tUvaGgYw4QJEwgENCRqMOzp6cC2UoClotVphf+zLNUXgwEF7bGlJJ02sW3pwGCca7OlGiQtmzdef40ZM6YzduwYz9jyPHDuIOpe9vd8z79rKTillSuXUjFXWTBpFR3KwcDkclqBwlKlUkle/OW/c/eKFcSTUX794r8zb96N7Nu3j3VvvsGC+Qtoaz0PqI65a/cu3l3/LrNnz+bj3R/T2dnJ2rWPsm3bVnbt2kVtTS1btmxhwoTxzLlujjqOprF9+3ZWr14FQHd3Ny/+6lfce88DAPzbv/2Mm29ewJEjh/jjn17mppvmcOLEcU6dPsf//l/+Cx+89w5Hjx5lxowZnD97msZxk9FdJy0ZT0iu/+5qUlpuRLCstMz7LsMwK9m7fw/JaD9LFi/h8OEvOXLkax588EE2fvAe4aIwR48eRdd1Hl7zMKVlJXz11SF27NhBIBDg/Pnz1NXVIUlz+PBhdu/cjW3bXDN5CrctWoS0Lax0mk/37+Hv/+7HjK6vJxgM0tp6jrffeYfOjjZqaypRRXcFW7dswTRNWlpasKWtjllayskTJ9i6dQtW2qJhzBhuv30Zuq6xefNmjh07TmmkjHgsisplBFctefEbj4jSWf/+b/t3KgU5PXTFxarkfjec2FIiBymh5U43PYe8428ydIOe3m4eWvUga1av5tTJk9iWye6dO6gbNYpH1z7C/AXzvWnHe++9R19fP5WVlYRCITZu3IhtWbS3t9Pf109ffz+dHR309fUjhGDB/AWsWrWKVMr0okCplAoY3HX3HTz11BM0Hz1C2kqyd98nnDl9kkgkQjgcZvvWLaSTCbZs3sySxYtYs3o1NdVVGR+KTzzwo5P6czWKbdlUVVVlos0+/9DePXvZtm0LIPnqq694443XkdJmw/vv8eabb5BMJti8ZTMfbHwf0zT5zW9+w7mzZ+nr7eP06dPohk4spvBQLS3n6O/v449/fIXe3h42b/6QdevexLZs9u7Zy/vvb/Cs3WQiwaFDhzj05SFnGgkffriJd995m1gsyqaNG9m+bStS2vzuty9x5tQpEok477y1juYjR2g518Lvf/c74tEo5y+0kEwmlIUt3ahipiNcykB/OUlBKy3XMhqppeCDCA7qiHRR5vF4HISgv79fUTFrGoahM6ahnrLSMoKBAJoQ9PX2UFFeRjgUpLq62rFc1NTORaI3TW5i8eLFlJaVsXLlfYwePZoZ06dz//33c/3cuU5UT/GCCTJTXl1XkcWamiqKS8LousS2TRKJGBKLrq4uIpEIi267BV1Iov191NbUEAoGGFVb4/lG8onuFBC9WqW6pjqjtHyLnbZUjqfymGNZJiCxbYuqqkqefvopZs6cwXvvrScej/PJJ5+w9pG1PPnEE5RXlIOEtrY2du7YQW1tDbW1NZw6fYrW1gv09/fR2dUJUtLR3k5HRwdS2owePZpnnnmWKVOmYEvbe262laamuoqnn3qSyU2T2LVzB7aVZtPGD6isKKe6qpLurk6+PHiQ06dOEe3r55mnn+ahhx7MFIeVLtlgxn+rFbhlXbBKy53WuCksF1MxWUo5KHGgruuMaWhg/fr1rH/3XU6fPs3s62ZnpQ6Bw+Nla8yaOYcDBw6zaeNW9u75lGCwCAksWrTYS3CORCJMnTIVTdOoqakhUhqhtKyM2tpaIpEIsViUrVu3smHDBpLJJDt37eLEiROAQlaD6nLu1HX27NmEgiFMM01RUTFz5syhqKiIqdNn88Hmbby/eRunzrVi6xppTYXwbbKnwdK2r8rCFu7LG4lE8uetagLTyS3t6elRbZwp1jXXXENZWRlVlZV0dXVjWyrhvrKymoryKhpG14MtFce8LT0raunSpRSFwyxfvpwHH3gA3TBYtXo19628T0FOhKC4pJhAwPDh6iRSCBrGjSVSVkpxSQnRaBQpld8qHo+TSiZZsGABY8eOVeXgQiHKKyqora0lFAogBXkHZzvPdReSFHyvvRiuc7eVJjTKy8vzPlBd13n00Uc5duw4bW3t3HX33UyfNh2haTz00EOAylNbuXIlhhFi8eJldHT0cebMeSIl5ay89wECgQDLli3zIAWpVMpxmCpoxqJFi6ipqfWOaVkWfb299Ef7uevuu0mn08RiMUaPHs3999+nrhFYvXo1hmEwa9YsHnjwAeLxOIlEgmAwiK7r3PfQGj79dD9nL7Rz3Q03UV1djaUpZLQkOxfStm2Ki6++NB4pFUzGNM28mLwxY8awe9d2/vTqqxw8eJCenh6+PvI1CvPm1qtUyiUYCjF6VB1vvfk2o+vqOH/2PNOmXkttbS1TJk+mo6OT0tJSSiMRKisriZSWOkoKamprAKVAThw/wWeff8bJkydJpVKse+stFqFCmR0AACAASURBVC1ahNRADwTUoKOpQcswDG64/no6OjupqKigtLSUxvHjiUWj9Pf38/rrrxNPJkgmUyAcltsce9uW3x1i7M8hBau0XEV1MUrLDfQGg0Gv0wyMqcHy5cuZM6cDwwhQXKKqP9tS8vzzzwMKnPnEk08SCASoq6/nmWeepqenh9KIUoTBQJDqqiqeePxx4ok4qZRJSXGx13XuvONOdCMzNSspLmHJkiWKlgZA2IRDIcLhMGvXrvWqTz/3/PMEAgECAYO1jz5Kb28v8ViMsrJKLARz585l6tQpxBMJKsrLSVvWoNPDYDBIKBQaFtd2pYkQgkAwQHt7O02TByqtm266iRPHmjl75jTTp09n1KhR9Pf3cfPNNzNx4kQAZsyYQSqVIhwK8eSTT3Ds6DFaWy8wZ+51NDVNojQS4eknn+LLQ4eIRaMgFT7OtdTvv//+DKRKQiIRp62tnWuuuYZ0Ok17WxuWZbFgwQLqnBqLc+bMobexG4Tg2eeeY/u2bUSjUYKhEKFQiKqqKu695x7OnDlDuLiIu+66m9qamvzPv8CfuZAF3mt//vOfI4TgBz/4gWfJ5Cox/7iiAbFUir/7u7/nscefpLioCEtm+3Z0cjuz7SS4ZvaknPRu+pDumPW6UowiO4kbMqh61V7l+Uh7IApfSglafl9U1vTUdagLge2MPZZU4Xnb58sSQihmQ7ItrX379rHqgbuorq6+inxbNiDo7Ynyk5/8hB/88D8BYAm3epKK/PZ2txOLxYhEIiQSSYqLi7Btm0AgQHFxsWfhVlVUkk6n6ezoUpkZhkYoFKK4uBjbsujt6yMajWLbNmMaGryoXXdvD+Xl5Qp5LyGRTBCNRtFRbg4NQUVFBdFUAl3XKSoqore3FzORoqq6Ch1BT08Pvb29aJpGfX09mqaRiMfp6OykpDSCZVmUlVUSMIwshL+UkmefeZyDBw54vqFC8xEVrKUF6gEUFRURj8ezFNVQWlgCoWCQ0aNq6WhrpbhxHIbm+sQymfJCqAHJ/czdqxAZG02QdqhwXGVhZzZ223t2Hv6IgLcuMg19I2F2UFoFgdxjSt+2FiBV0VfbRidjVbr79uvgoGHQ1tpCKpW6quAO7n0MFwXp6Gyjv6+L0rJSDBFQPiQnQFNZUUlVZSVSQnkZ5I4goVDYI4zUDYNRo0d7/UE6jBBCUy6IioqKAdkKlRUVSOkoCwFF4WKKwsWZQc3JWSwtyfgzSyNliBLVpYQUVJRXUlFRkXVeRcVFjC0eg3ATv9FA2mhkumM8kaCyvBKyu2dBSaEp2QHiOlT92e6+bIYBCsx2vr154QL27fsEMxlHI40mLHRhI6SFcCJHQtgI4dSxy8EOqCijdKyvNEJYINJITJCW2t63aEJ6f+Ms3vfO8dzvkO4inUWt+1HRmcQeiYaFkBY6Fpp0Fjvt/S2kpdpgYejQ39fNyeNHKSsruwqVlsAwNFasuIsNG95GkEZHokkbIR3kOoBUVmxupM2lqbEsC8u2kEgsJ29UuYoy/TCLgSErmzkX0a7+sqUyir30IilQheZU6TBNqL+V5vJZ7f4do4IsAtDc/itVv4729fDm66+y9pFH8iLqC0UK2tICpbRaW1tH3N4tyTRv3jy2bNnCK6+8Qk1tLddecy2TJ09VETUtOwHboz52zK7cCbWG7euYAs2n4PJxu/t/c6lGbDvTJrfD+4no/HzxI+F/d7fXnanJqdOn2b9vH4sXL6KsrGzQ7a5k0TSde+69l5/+4//Dm2+sY/78Wxk7dhypVIpUOkUymSCZSBJPJEilUiTTKcyUiZk2icXiWFaatEMUqCLX6j47PLMIIR1/VXYdRCG0rL7gVSYnm65Gk04NTOHnSRMEDINgIICh62i6piqPazrBYMBB6ese5XYwGHCCPzrHjx/j9OkzSCnZt28v//AP/1CY2sqRgldaLmvpSJHdbotIJMIjDz/M62++SbS/n97eXicSFyBtq4ifaZqkUia2bXnr8bhKik2ZKSzL4W23nQ7sdciM70ulgtgDFM5g5+zCOPwc8LnbuYymLg+8u7i0y8FgkGAwSElJiRfp6urvV/4SAU1Nk3jggQe8Y15tqHgQ1FTX8uyzz/He+vdob29nzJgxhBxmWA2BoRkITUfXDbR0AMMwMUwTXdNJWxZmynQwVT7UX87YZDsYKde9IG0VuXOLtLqst0jpK3EvsV37S/NbaJnahZZtIdLKlaEJDctWSdC25QamNJJJHcMIEAgE6Hf6d0NDA3/zN39LdXV1QU+xCl5pXWqhVl3TmDNnLuMax9Pe0Y6UklAwjK4J0pZNIpkklTKdSsK2UyLdJFmc8P62LMtTWpZlK4yOLbHJoO1dZeNXWvnEb1n58ylzw/JCCEKhkMcN7/KJGYbhRBazlZbrZHcjhfX19VRWVmZhtK4uhaXEMAzmzp1DY+M4Ws61Ul1d5UVp3YHDtZbcpymEmpLb0lfMJIfEKvfpZp6d9IqpuEumiEmmbTaRpcjdvfNpe8rO57103BLZx9E0jclNk0in05RXVFJXV/et792fWwpeaQWDQe/hw8hfQE1o2EBlVSWVVZVqW99oluUn9634eYry8pT6R94cuRpz/S5nEQJqaqqpqa4ecrrkf5pus2+LdJKDruQcaAi5mJivbdvYZOoH2BL0Au2GBa+0QqHQJRdszadcMlE3v3M/+3dXBsYrhfP/0D6mS5FcC+0viu87lGFuZb6fv+3dF4OuDC7fBpuk3AzfYgeXkRSs0nJf4mAw6DE2eNYWI33AbsvsXjOUNfRtO+tQU9nhHOqD7W+o7bIcvzI/1/nFWqlXsgw2OOTeI5Gnfb77NxLXxcWAo/N+P1JtdIU834JVWq4EAoEBFXmGUlrZKkp60UT3N4lESAdVleNPUABSkUfX+fBXMAAeAdk+qwHnlKN4ch3v7nYX+1Lki0AOtt3VqLCGugce11ae+5bve/9v+fbpb287PgY3yjyc0vHQf24Ax/F1uYeSCiToOyh5XwAt/9cFJwWrtNyO4yqtkfqKspWWApW2d7SjazpJU0UI08k0ZipF2nKc78mkE/L209cKRb4m3I6pPGKapuFHzruOdfdv7zzyWEDAgEijv02+StaGYXg8+a4z3u+Udx3zhmF4yr26uppQKJT3+FeLSKk41Y4cOcKJEycoKSmhpqaGQCDg3evBGHEHU1q5A0u+5y6EwHbBETI/PdKAc3WgEqapoo2WCwy1LS86mS8yLaWq3pNOp2ltbaUoFGbO9ddTWemAUgv0kRes0nIlEAhklXkaqdhITp08xXsb3qOoqIjysjKisQSpZAIzkSaRSJAyU6RSKRJxFTF0Q9TeNMtXOFWJdJSYcy5Cc3BY2Q54F7sjhFI2qraeUkgq8uPSM6u9ui+JyxohnO8QgmAwgGEonI6ha15OofvpLoZh0NzczMSJEwmFQkybNo2JEydeUuT1SpGtW7fy+uuvM3PmTEpLS+nr68MwDC8q7IerDDaY+Dn4gTyKY2C/lMIt9zMyd74UzujotLcdXJfyu7rHxXWpOpAZVcJMcaYJzp8/T3NzMwe/OsID96+ksXHcpdyyy0KuCKU1wIQfZhsbybHjx3n59y+TSCSYNEmFhDWhEQiECGghwuEiNeJKW1Hw5rGS/GSBanGimEKN0ipaM/jUzA2t27alIBM+yRwuG/oghFA5hALwERYqcKPt7dOP99J13TvmkSNHKCoqoqWlhSeffHJgde6rRKLRKP/6r/9KXV0dc+fORQjhDUquIsqnuHIt3nxKKjMA2d7f/n7iWVoj9WUJ9YwNTffApq4F7+eTy8A1XOtbPftAIEhdfQNGIMDGjZuIx/r5+7//O0UBfRHncblIwSsttzLvSHMPAZKpFC+99BICjRUr7iEYLFadwEmclXk65WCYqWxxsTsuB7cDDPWlduQVbwR1S08NjEJKX1KSm3confbSKbSo4VpiznZZH4K6hnE0NzeTSiT59LNPWXLmDJMmTRrmbl2Z8tVXX3H6zFn+6oc/IhBUJdz0gFtOTZAdAVYWtAeLQnh5psr36XcHZENkMmh4kZnGiYtMUBfudHKk7d3DSm9dILjxpptIJlO8ve4N7r//fqZfO7XgFBZcAbmHhmFkTduGdWpKSSwaZeuWrSxduoxQKIzAAKkjpaYWIbwFoSE0HYSTlSY0bxlQJ8XdjkzNFE3TURU/dfAyBrMXIdSCZqhF6KhafJq3KFSOau+dG047YSAxkOhIdGyUlWdLtVhSw5ICTQ8y9doZ1I6qB3TOnj2bdV+uJjly5Ag33Hgj5RWV6v4K3bt/EgMb3beo+ygx1L0WARBB577ryufkLDZa1roUum/J/W2Ei9cHRrjklpyTSmFqQrBg4QLq6+v55JNPClJhwRViaSWTSSzL8jjPh50eSklxSTGlpaUeMNUdCdX2l1IsA6RUVVN0oTl9RXfmeU7uoNNWOKFJaVkKP4PIUriWa/UN8InkjjHZ8NaRjOACqKtvYM7c62lraxsyqnklS19fHwsXLvQc465vUlnGOSK8joH/DzWICV8ajz3EfVT2sWYYA1wBI5VMCGjwY2S3HhjJDBgGy5cvp6Xl3CWdw+UgBW9pBQIBrx7hiESAoasppefY9jqaMzI5FszFLBKNnt4evjn2DamUCVLjxMnTdPf2ZSwxLWMl2bbN22+/w4sv/pr1699TGf62TTQa5cXfvMSvf/tb9u3/1BlpcyvoZS/ueQ9WJc+/2M6LNqlpMl9++WWWr+VqESlVibeGhjFqXWjYZGpKSmWc+BbpLLnrAlsIbMciOvJ1Mxs3fZjXCrclfHnoK1566beDRh6Hk75oP/2xKJl+mrv49zX472PGNHgl9ApRCl5puc5m/xRxKJFSPcBTJ0+TiCdQD9P+TpYLF1r5xS9+yYGDB7GRvPTb39DScg7bdviunDEynU4jUcmzXzc3s27dOsCJOmqgaZIPP/yAzw7sR4o0CMtZ1Mvivj0y5z/H3Bticd46BELTOX78+Hf5KApKkskkhu4WbFXiTesH3F9X+WT/59IWuXRCX355kA0bNuQNvEgp6eps5chXB72K04rgY/AhRtoW0lY0R5qQfLhpE++++za2tNB0kKQBSy1C9TFQ0Wfh7Dt7cV1dmYh2IUrBTw/h/2/vPWPjutI879+5tzJzThKjAkmJCpZsWVZqybbGSepue9Tu5NA9M8AuFlgMBvvhffECOwPM7H4ZYAYYNIye7e7tnnYH2W3Ldmsd19NWsnKwlSjJkihRgaLIYq4qFuvee94P595bgcUgWbZHMv9CiRVuOPeE5zz5UX5Hw8PD5OfnTz0QNkfT39/PyEiEQDCU9KtKica5VQgkIyNR9u7dhxCChYsWcfDQATZufJQrVy7T3n6GJ554iv7+Afbs2cMTTzzBxscew5SS7X98E00IpCbIyQnxve89y+n2U6CZWNJI+gvZ/jpC2gr4zBxfUwnGyQJ/IHEL0n59IZQu0UZmvthk/zoWjWT/nmlv55NPPiEQDLJ+3RqKioqJxUbp7u5m27ZteDweHnzwQcrLy4lGorzz7jsMhrsI+HQ3Z1d//wC7du0kEonQ3NzMkiVLEEJw8+ZNDuzfz8DgIGVlZaxevYa9ez/mD6+9SjwexzJMQsEgm775VAaHlukcm8WB1v7f5/VjWdZdmbX2rue0pJTMmjWLK1euJHVTkyxeZyC9Xh/DIyMZgzp9MWtcoXKboJSWFHPu3FkuXeog4PMikFy5cpVtb2wDSxK+2cPrr72GJsHv8+PRNDShI4TuXs3r9eDx6GhSpUkZ7w1v+3llvMbvrBO/LMskGAzaffL10me5cPR5Nuczvp/SxSsh1Wuwf5Cf/+wXdHff5Mjho/zu968oDl4Kent7Gejv58Snn/LqK6+q7LB2JlHTsjhw4IDinqTFttdf48D+fcSiEX7z8st0dl4mPhrj5Zdf5tDhwyQSCd56649cuXoFhMAyEggkui6wsjqmprd/3AYuBQKVjjsnJ2dCJ9n/6LjriZYQgsrKSrfkFihFZTbCJQBNgBAawWAwi1x/+0TLSeSWl5/Pffct5cMP/y9CgMejIYHISARhSYyxBH29YeVfY7fVaaorEmBhmoZNrJLihTvB7Eyqn4domaZBaWmp24dfB6T6x2l22XtIjnha1VaRhWjZ/860n+XQwUP8+Z9/hw0bHub//J93iY2q6jf5eQU89eSTbHx0I++9/x6Dg4OEQiE2b97M6lWrGBgYUJWmEwneenMbZaWlzJ5VQ8fFC5w6cYKu69fZvXs3Gzdu5JlnnmHjxo3k5uayYf166urrqCgr49vf/hZPPPFEFoFgvDiYDvUcuqaRm5d3SzVD/yPhridaUkrmzp3L8ePHp1X70PEmnyxM43YhhBI9N2/ezKFDhxgaHELXdLyajmWHYMSiUTQpkKZK9aZruiJAGghNV3FpUuX7wpKYhgkWaGg46+qW22VzCKnEzbQMKuxKL6rtd9/kvVWkPqPP58OYrvEmAwPhMF5Np7qqiqbGRqKREYxEHB1JWUkJFaXlzGlsIhaNYiaUCB4IBPB4vK44mjAS9Pf34/P56O7uZvnyZYRCIaLRKLqu09zcTF5eHpu/uZnqqio8Hg+BQADTMvH7/cpSLpWrjvtyie1ERCvZD3dzdfG7nmgBVFVVce3aNXp6epSIaH+fyW25TL8QjI2NEQqF7uhiFUIgLUVEKysrGOjvR0pJcWEhg/39nDlzhv0HDmAZBtevXkVDkBMKMTQ4yPHjn3Lq9GnVYktSkJdP++nTnP/sM65f6yI119ctt8v9lyRaUlpuYYS7UUT4vPB6vbet02usbwBLcujAQT7evZuSYlX1xqvrGGNjdF66xLtvv03d7Nq0PPyWTHraezweGhoauHjxAgUFBbS1LWLu3LmUlJTg8/nYvn07Fy9e5OyZM0SjUQDqamu5ceMGp0+fpqOjA7VHJy3YbhB1lpoGmbibN6m7nmg5u0ZbWxtvvvlmSnyeo3JMQsrk/lNYWDg9xf0tIC8vn/nN89GEzuZN32Tp0mXk5ORRVV3F8vvvZ9fuXXh8PuobG7jY0YGFpGnOHObNb2bnrt0cPnIUwzSxLMmKFQ9iGCb79u6j49IlEOOHarwwkGnidpwMx5+YiI+Rl5enzrqLJ/Ctwhlvj8eDKVVhiomEaFdSJH0eNTY18s1vfYsDBw7QeeUKP/zhD/H7/ZSWl5Obn8fuPR/TffMm3//BDwmF8lAOxDrR2CiariN0Dx6fnx/9xV9SVFxCb7iPcF8/gWCI4pISvv3tb9PZ2cmuXbvYt2+/W1n6G9/4BnPnzmXHjp3s2fMxlmXa02JycTDzs5QCI2HetZvVPWE91DSNJ598kr/7u7+jra2NFSsfRNd0Up3wlIk66UhZV1dHbm7u5BfOtpYnGGcpJVWVlTzz9DN4PF7uu28ZgWCIivIKcnNzefFHP6Krq5v6hgaWLFpEWVkZEqiuqeH7P/whA/0DBHMDCF15x99//wPkBEOMjsaprplFtvklM9onMr6YMPeTlPT29DCnaXaanufrgFS/NMM0lBuJ/Vtmf7p1IiVpBh5/IMALL77A2fOf4ff7aW6eh6ZptC5oxef3o0uNB1Y8SF1TE2gaAwODdN+4wa5du2lsmoPH5wMhWLN2HdXVNfT19SGEIBgK4fH52bRpEy0tLQwNDeHxeMjNUfO0rq6OF198kXC4H13T0XXlgOy6M4ybJEmZw/kshGBoaIiurht37Zjf1UQr1foxZ84cHn74YV5++WXC/X1UVSo9gNfOlV5bV4uUin32+33U1NRgJBL4UlK0ZFKk8YOaXl0l/ReLnNxcWhcsAAQ+j4clS5aqkmVC0DRnLg1NcxBCUFNToxTsQoAGLS0tdiCsdOqqEgzlsOz+B9w91EwRe932TXOjdAmTTcbHDIPz5y+w8dF1d63Z+/PAscbe6OqiqrJqWjJ3GkEQguLSElaUFKf9Vl5eSXlFJbrUsaTEFMrt4OiRQ5w4eZKe3j6+94PnlKUZEEJn7rz5bpucdDKBYIi2RYuz+HtZNLcscI9XdaAyrd+pnzLVI4pt/ODDD8jPL8iageJuwF1NtCA52B6Phy1btiCl5NLly1y4eJH8vDyKiovJCeUwu3a2y3n5fD7Wrl3LocOHWbRoEbm5ufbgSXfcVXUdQKQEzwrL3m2zKfylmzIkna4JlxCpkA8cawCWUBulKqYp3as6RCrtGRlPpLJNt3FpUFKJnZTERmMcPHiA8vJyKtwio18/tLa28vtXXmX+vPn4c5J6p/Qkf9n7xkKm7Vvuuc7cUV8ibKV4QVE+zc3zWLnyARYvXjJ+PoDrje8Yk93PKRAppe3SpoIY98Y+yEp7LhOLs6fPcvLUKf76r//6rtywlJ/i3SrYZsB5jGg0ypXr1+jt6SUUDJKTmwsC5jTNQbHH6vi+vn7eeed9Ojs7KSkpoaioiIA/wFgiweiYpUqGGYZdhNNSFXnMMbveXXYFrvK2l1k5ICGc/7AntNKaSinR7clmieximtBULKLHTjkT9PvVZLNN9041HoSw05GoMCVd13HiF03DZDAcpre3FyEETz+9mcbGunGL9euCoaEhfve7VxmJjJBXXEpZWTn5hQVoIpnNw634nIV4CWcujfOhsy29gGXnVXPcV5w6hXcK49yw7GwhGkKVLzMN1XJL0n3zJp+ePsWJEydoa23hv/7X/0JRft4dt6B/GbhniBYkCZdlM02acG1l9gHpJZnC4T527NjN8PAwoVAIr8dDLBYjnrCJlKWyW6rYRoOEEWcsPoZhjmW9t2WhimxMkJHSSBhK8etYk2yCqHy1JFIbPxEBEKp6kK6p6sIhvx/Nzq2k6Rperw+fzwuahsej8ic52UudMmO6rkM8gcfjYfHiBTQ1NWbT7X9tIKWkLzzIno/3Mmz7WAlhW/a8tgAiVdRA1k1osotncF7qK7WhZOOEbwfKbSe7LktHbYiaPQ81BOFwmJuDg+Tm5rLp8Y3U19fjuQvH/57itCCDaGU9wFHEJ79KjBn09/e7FYNV1geHE3LyYUksU2KYCZASS47ntCxpIS2BaVoukcxshiJaDvuvvNLVICT1DdlHI0PXlvpeqFAUTVN/ncWhaxpC0/B5fegeHa/XS14wh7z8PHw+HWllNUh+LZCa1cMwTAaGR+jv7ycyMoJhmng8ihuSlp0tNsugJI0ak9zH1oE68yErV3Obq0952U/wGyCEhseuEeZwjEVlZRQXF5MT9Nupam7v3l8l7jmiBTYxmIJoQTrhgnQ7S7a1rIoJW3YppvGclAqrVRlCTeEk87s1TCaduc7wkxzzNaVB08Yti8B3YmVMEcR/2yK5sHe4yc6f4Ke7WRVgV3K/t4gWgDmhX8LERCsVWRe/ww2BrWCd+EwzU2E+jfk1HUw2UrYhcorzs1/gbp3AYPfJNJs/HcKfDRPugXdg6UwUcgbY8ZCTI+nMwOSsU+q1nD6bgtX+Qojt54RlWXe/9fBLg7AnmJzIJwYyptD4X6cgOlM2Yao5KVLcG7Ip9O9i4jQh5Hj/qgkh3FOmd2n7wIkqMX+e/kzldiZO6jdFS1Mtw471e4LjpJX+m1sKL0u7JkOqn9uXMZ9S2+Pk378nOS1rGo8kYEIqMPVQpF/fzUhq2WdnU1046eO/QBnuHiRJU0PC9ApxKdzOOpvqlC+s329laWYlQODOVemoMIR7vJwgymKCy7kMmjOXNftAt08zTk79OLE32cT3Tk0SkFpU5J7ktG5x471jd5hUvfC1pChfPCRMGijvZPF0+v92RMSpSMfnHVrLSk/T7FZeyrxy6scUdYX6KRtn7aglbK4qhUNSflvZMZEqw/3e6UMyJNKU947B6U5Me4d4OYaye5JowVejbJxUTPkCmjLukhNsk5mL7quin19IyJDr2jKBhXWCe90JHeOdhFNX0zAMVM4ri7GxBNFYlHg8TjQawxnJWCyqanGayoptmsoSnUgkXF8tpwcSRgJpSfu3JCmxLAszQyQQrp+ghq6LcR2kazqarqHb9Tp9ugfdo+ptqmLBXrw+9dI8HoKBAIFAAJ/XRyAQQLcpnJOlYrr9n6qSuSc5rVtdGKZpMjY2hmkXmci8Turn1HQ2abXvHNeIDEuRM0ks299L1cGTGEYCyzQxTCdFrlpEhpnc+zSB7YulnsXjUdWiU10bPJpyS3Xq16lkghrCLoyoCeVkiKbaaxgGHo+Hgry8r0S/5WQ3kFItorGxsbQCqGpxRunt7SUcDjMyMkIkEnELl4B6jtHRUdW3UuX5Ny0ra4yCBq5P3PjnVdxXIBBEub+lOurqBIMhvD4vuqZTWFhIXl4ueXn5FBeX2AV4k+c4Oq9U73IhBMFg0LY2T7yBSinp7Ozkd7/7HaWlpXZKmgL8fj/xREIVDR6LE4+Pudd1vnO89i3LxDBMTNNIm39CCAzDtPveQLPjFR3H5PHcmcOVqr/jDVcCy5QIXYJlYQgLaagCw7oFhgWGJUlYEl03MS2Ijxn4fD7iYwaWmaC9/TSnTp2msLCQ7373WTsZ4fhWZOsnd23fSzotKaWbK94pUpoNzgTq7Oxk27ZtzJ07z05VYhKNRuyc7unFNlMrCTsEzJWzUT4z6pUkmk6laYny+XGupVKiZBI4tahdnx4hkg6kmiJaHo/uTii1WOyJ51S6Fj7bR8cuYGaLAZZt7ezqvsbg0CCza2bx4osv4r2D3tnTweDgIOfPn+fw4cOUlpbi9/tx4u0A4qNxYrEY/f39DAwMEIlGlLNvPO72nWmaxONx+xxNLVgzu/3N6QPIQrRsT/ZQMIimS9fXzSFcwWAIn8+Hz+cjPz+fQDBAMBCkoKDALpKqxsfr9aDZd3eK4t68eZOLFy9SXFzM008/TWlpada5KKXkypUr/Mu//At+v5/KitnMmzePnJwc/H4/Y7aQJVBOxE7FIPdZNJHUF2WRex29rZNMUlWdTq6LKdNzdfHHZwAAIABJREFUZ/Slcx/Lvk2mET1VHEzVRTmxnoaR4ML5C5w+fZp4PI6mafz3//7/jdN56SnXcFL5OKLhPaGIdx7s6tWrXL16laGhIeLxOE1NTSxcuDCrNUQIQTQa5R//8R/RNI3m5lb8fj+JsQSx0RiOaj2TUGW+dysRu06rehrR0jTpckWZi0e3szk418uG5DmQqs50DneyELh+adKnnAaxXDFBCM0N2u4dvMHAwAC9N2+y8sGVfPfPt3wpFaZN06Srq4tf/vKXzJ49m3A4THl5OaFQyOZcbU7VsXA5j2r/TXXQVM/kPLBKjJispHNrcL3UNdO9mWVJm7t1HHV1OxTHVNEOKURAEToNXUh3o7Qsi3A4TGdnp0o0aBg88sgjLFu2bFymUMuy+Od//mfef/99/v7v/x6vnufqn6QlGdXVTqjhzAOnIjS2TurzqUA8WZykp4MJ/SCx570cP6czUzsPDQ3xN3/zN7z7zttUVJSlHZuNaDkv+IIDpr8svVJvby+vvPKKK0oYhkFjY2Oa0tGB8/nSpUsMDQ7z7LPP4vEEXEUlYMsVGTtY8gLpu5qULhct8KSHDU1i11K7pkJSD5EdmtCwsixKYZ/niEBIr90Omd5EpzX6XIQQXOroYNfOXSxqXcCSJUsmvfedgGEY/NM//RNej4/KiiraFi0Fe8FpQlMRB5YF0ing4WqQ3b5OfR6Hg3U63pTaBERrKjuVvSEIw34v0sR+kaLzke7/Mvm9zWqk6aIFVFbNYsHCxSBNXn31VX7yk5/ws5/9DJ/PN24u7ty5k/UbHkb3+kibBsK+i81Zu5ZAkdp67RZ4pTuPbPd2IjymQn5+Pq2trXReuUpZedmU3vmpTMOkBvhM7mJsbIxwOJz23Y0bN4hGo+OOtSyLEbtwxOXLlzFNk8HBQfeYsbEx4vG4LZ+PuecPDQ1N/cQpEELQ3t5Of38/q1atYuPGjTz55JPMmTNnHMF0M0jaBQbWrl2Hx2unwJVKASmlwLI0TEugqk0nKwRbUsOyhFu5WdUd1FNEQ+FeBzRnhbkvqRqREsozXau22t11TYXnuEG97rq1dRDOuJF6T5Hyu3rV1tXTtmgRhw4duqW+vl0YhsHBgwfZtGkz5eUVYFdNtqTAlMpFRfWJ3adSpP8ltaq3Gitppe7myeIf6S9tgldqsZCUeocytS9TxhEthYAlC1w451gpL9NKvtc0nQ0bHuaTTz5xuTRIbuZCCIqLi1l+//0IoSXrKqIySTitSNZOlCQMFXxtWqZL0G7/lcR0HI/HWTgh6ysbsl3/oYceYjpCaiZtmZDTam9vp6+vj9HRUVauXInP56Orq4u9e/fy7LPPEovFOH78OO+99x7z5s1jbGyMDRs2UFtbCyiRYNu2bTzzzDO89NJL/O3f/i3bt2/nO9/5Dpqm8d5779He3o7H46GsrIyWlhZaWlp48803ef7556d4jPQHGh4eRtd11q9f77LzmUpx51ghBJFIhMOHD/P88z9WnWbZO7XNdlsOiw5pyspUda+whXopkxmNpNRIGAk8uhIbNPdcW743LQwjM4fX1HD8zpzhSt4znUObrAoRoEqPSdDQqayoofvqpUmPv1MQQqOmZhbBnFxbB6jZPkM24bYrPE/XS9RyxCVS845mg/291NM/j2MFVMHb8W4GNqGSjljm3Ndphz0uEzTbkgZFxcWUl5e7czKVcCEELa1thHLy1JU0K0lAU+4kUCJrPBbh6NEjjMZizJo1i3nNCyZ47ltHJBolJ0v68c7OTs6fP8+qVavx+5UqwUmWqk1FbaZAIpEgGAxk/S3b2nVeExKty5cvuxyJ1+ulv7+fjo4Odu/ezZo1a9i/fz/btm0DoKOjgxs3bmCaJtXV1Tz66KN89NFH7Nq1i8HBQV555RVaW1vZu3cveXl5PPLII5w7d44PP/yQ4uJiau3c17NmzWLPnj23RLQAGhsb+cUvfjFlmg1nQPr7+7l69Spej9eex3aArPNKGbfUrpMpOoXecJiLHedIJBI0NMyioqKSru4e9u3bx1NPPIbP50lJbaKuMtDXxx+3b+fFH//olp7PgWnApcuXaGiocx4o4wGnQbRsjEZHKS8vv6123Co8Hi8+n9/lMp0q1261eXuDmG4Ar7RN9ocPHaC+vp6K8qpxx1iWyeHDx8jNzaW1xRGBUzOWpV0QhNqgXMIiYGQ4qgpS6D5SORMnjEva+aomIlrSVjHEYjH7c7q6xJJQUlqGYZr4UIYbVXRXs2+XQpyl5I9vvMZnn31GU0M9JQW5aChrrJPrPlWf6txLZYKQE64Ny5JEoxF+//vf88KLL+Lzel3jiBBw/fp1du3axQMPrFCZRNzuU+ykY0m9HVXQpUuX8Hg846Zxeh+O1yNPuMr7+vqIx+N0dna6Fge/34/Pp9Ke5OTkcO7cOebOnUtnZye1tbVcvnyZt99+G8MwiMfjVFZWsm/fPhKJBB9//DHBYJBEIoGmqRJeBQUFVFdXU1paSl9fnysmToZsv8+aNYtYLEYkEpnYWpRyfiKRYHBw0D1OOqIWTKwGISnpxWIRtm79PR999BH79+/nV7/6Fb29vXRdv8Lbb7+FYcQQwlCl0zUnbaDEME23PqOjM5vuZiWlpKenm5d//W9kOzP1eSdi21PPGhoeIhQKTfPunx+ulVAKN/d6sj1JTeC0XkLDsCx++7vfce78BZIlwJJ9YJomhw8f4Pz5c6hQhdSXfSWR0gJrvLvK66+/xtWrnVhWAiEyuFqZbNFE4pFjzb5+/XqaeJiqzPf7/UQiESBbJEf6Fbe+8gcWLFzEmrXraGhsYnBwgBMnTgAQiUQ4euwYlpR0d3dz6vRp9u3bx4EDBxgeHsZxKTl79ix/+tOfOHjwoOtesmvXbrZt28aePXvYs+djwuEwQsCxTz7h6tWrFBYWqtTONpz89UeOHCEWiyGE4MKFCxw/fpw9e/Zw4MABRkdHJ50PoDJshIKhSf0Gs0lME3Jazc3NbN26lRs3blBUVMS5c+dYsWIFnZ2dlJaWsnjxYmpra+ns7GR4eJiVK1cSi8Xo7e3FsiwGBwdZsGABK1eupKOjgy1bttDX1+eajCORCKtWrULTNCoqKmhqauLIkSPk5ua6PlMTxc+Zpsn58+e5fv060ahyvquoqKC3t9ct1pCNuKV+5wykSCVYk0JpFxy/mo8/3s2P/+JH5OTk8NOf/oTDhw9RUFBKuLebd97djqZpzJ8/n4VtC9GAN996i9FIVFnrTAt0QWQ0xsd79tDX20NxcTGrV68mJyeHgYEBDh48SH9/H8FgiDWr13L23DlOfHqaj3Z8xPL778M0Tb6xfm1K1tWU55xiwxMShgaH8DXMmvKp7wSklFim5TbMFa/cdjpiVvaGW5bF6VOnuHbtOoVFhdx///2A4MLFDk6fbscai1OQX8DCRUvQNI2Ojg4uXeogEhnBH/ACFpqu0d3dzdGjR/EHPCxfvozc3Fwkkps9vZw8cRKAlpZmCgoK2b9/P3/841uMjkaZN7eFuvo66uvrXb8rcDYKOa7dQqZzBiofWyLrfPb7/YyOxpNzc9wxkq6uGwwODtJ9s4fiklLiYwkqc3O5fOUav/3tb/mHf/gHurq6eGXrVpYsXsKJEyfYsWMHs2bNorOzk5s3b/LUU09y6NAh3nnnHWprawmHw9y4cYOFC9u4dKmD0dE45z/7jEAgwOzZsygpKeH61WuEw2GuXbvmtq+/v5+f//znLqNx4cIFvvvdZ9m9ezfnzp2jvr6eixcvEolE2bBh/aTzoqCgYMKQu0wDWiom5LQWL15Mb28vY2Nj+Hw+Tp8+TSKhkshpmsaNGzeoqalhZGSEuro69u/fT3t7O4888ggej4fjx4/T09NDT08PQ0ND9Pb20tfXx7FjxxBCMHv2bFpaWigvL+fChQsUFhZy9uxZli9fPiWb2dvby0svvcRPf/pT3nvvPf793/+dsbExd0ebCpZlEYlESFgGFhamMLE0y9aQZNvbLXunNZEYnD13mlBOkLVrV/Hgg8uZO7eJs+fOIpAMDQ3S199HX1+Yl3/zMn19fRjSIhYfxTBNjhw96k7onTt28Kc//Yl4PM6OHR9x4MB+pJS8/fbbfPzxx4yMRDh06BDt7acxzQTKQ8YkEh0hGhtJWwi36rkyMjLypda+c7y3p4NMjuXUyZP8+te/5uTJk/zmN7/h6NGjCKHh8fj49PhxTref4fVtb3DkyBEAwuEezpxpp6e3m3C4FynHGB0d5pe/+jlHjhxg/76P+fWv/w3LMujtvcnP/tfPOXz4MHv37uMPf3idWCzGuXOfMTgwoMp4nW0nHO6x6YktS2bonSaCEAKfz5d1XgrAb7ucSFK5ZdUDjnf6iRMn2LVnN6YFxz49zp79BxkYjmIYBqdPn0ZKycDAAOfOnQPg5s2bXLt+neXLlxMMhtixYwdSSt568y1yc3NZu24dy5cvJz8/n+LiYtra2ggEAixfvpyVK1dSXFyMBNoWLaK5uYWzZ89i2v6P7e1nOHbsGKvXrKG5uYXXXvsDsdFRrly5wuDgIKtXrSIQCLBnz+4px9nj0Rkentjwlk2vBZMQrQ8//JCKigoef/xxgsEgW7ZswTAM27FOIxqNUlpaSklJCZWVlezatYucnByXDV6/fj3l5eW89tprrF+/ntdeew0hBIsXL0bTNGpqahgYGGB0dJS9e/dy/fp1ioqKaG5unlI3lUgkyMvLo7W1lSVLlrBs2TLKy8vZsWMH3d3dUy5gTdOIx+OMGWNYQmIJC0tYSpwTWYiWsJCYIEzApLf3Jn6/F69PQ9OhoCCf0dEYQhP4/T7Wr1/PE088wZkzZ7h65SpC13j0zzby6MZHudHdjbCf76OPPmI0Hic/P5/R0VEOHjrE8PAQ27dv57777mPTpk1s2rSJsvIylixZwqrVK/H6PGzYsIFHHnkkK5c1XVjSSjPvf5FwxOFpH5+hk3/v/fdBCB559BFKikt44403lF+U7qG6ZhZr132DktJS/vjHtwBoaGxg3bq1+P0+bty4DsKk88pFdu78Ew2NddTMqub11//A8PAQBw4c4MyZs6xfv4ENGx6mrraOUCiX1avXEAwGWbp0KavXrKK+vi6NaCUtv1MTrYnGSIDrqJr+gyO6qnNn19WyYMFCvH4/rQvbmNeyAN0XSOqtbF+m1PuUl5WxeMkSamtr6e/vB+DsuXOsWbOGluZm1q9fz8qVD1FQkE9DQyOGYTBnzhzmzZtHXl4eAqirq6W+vj7NUtjV1UVxcTFLlyxh7dq1dHffJD6qIhZqampYsHAhc+bMYWRkZMpx1nWdkZGRKXpwPCYUD/v6+ti8eTMNDQ0Eg0FGRkY4ePCgK35dv34dv9/P3LlzOXXqFI2Njbzwwgvs3LmTgYEBuru7iUQiPP744zz22GPs2rWLeDzOtWvXGBwcZO/evYTDYSzLYmBggFOnTgGKC1qyZMmkhKu4uJgf//jHBAIBl12vrKxk+/bthMNhqqrGK2ZT4fP5bGuVmnnJPTM9bsuFVNYbC7UAy8oqGegfwonC6esbIj8/H9ApKCikprqaQDCI33Yu9AiNsuISRmOjSJHcUYeHhikuLmZsbIy2tjZKy0oxDZOBgX7q6+uorKygoqLCJcL5+XkIISkpKVKtFNotc1gOvF4v8Xj8ts69ZUgQmnD7+VZbfPH8edasWcuSRYu5eaObf/3Xf8VIJNCERmtzKwsWLOL69W7+7Vf/G9CoKCujrLSUd97NR/eofPkDA8rdJhaLIoRGU9McRkfjfHbuM6qrq1m2bDmappNIKMmitbWVYCjE3LnzWLBgAdIm8pqmKR1oiqVxXMERmbQ6a5qYlHBJqXLRC4cAitQ4SnVOS3Mr0pJ4dB/L71tOfkEBlqWU8KOjo/SFwxw9dgzTVLUNAHx+Px5dtzcmdb3a2tns2rWLBQsWuCm4AwE/Pp8Xw0jQ0dFBQ0MDXq8Xvz9AJDJCIqFC3GKxGIFgkPLyMgYHB+np6eHw4UPk5+fj8/lUKI/tae/xeNDs6IDJNtVQKEQsFnN5V1L+ZnNOdb6fkGitW7eOyspKl3h4vV4aGxuZP1+VPJo7dy719fXk5+fT0NBAIBCgubkZj8eDz+ejtLSUyspKVqxYQUFBAZWVlRw+fJj+/n50XaelpcVObSxpa2ujsLAQwzBc5fBUD+voF0ARuqamJgYGBiYVeZxr+nxOAKduj6ftPe52WSbBlEkLkxC0tiwgkTB5843tFBYWcvr0Wf7qr/4KpCA+anDi5Em6b9zA4/FSXV2V1HGIZDuklLQtXMj+/ftpbZlPaWkZTY1NhHJyaG5u5o033lS7kNBoamqiqqqKUDDA6OgoH3zwPsXFxcyf30JOKIR2GxVV/P7Al0e0UBP5VsJGUlFTXcOZ9nauX7vGsaNHaWxstIt2CCIjETqvXOXQ4SM0N7faPneqktLY2Bg5OTlIKakoLycSiTA0NER9fQN/9md/Rl5eATWzZrN372FOnTpJWVk5IKmqqkHXdYLBIKdOnaS6upJAwE9+vtosVJ7/pPopc6a6n4UK9cnLy1OFR1LgLOiRkRGKioocEofAcenI4E4lVFVWqaIlUqAJnaKiIioqKnjjjTe4euUqhYUFHD/+Kfn5+VTYbhb5+XlUVlYhNI3vf//7bN26la1bt+L3+1mwYAErVqwgJyeHdevW8c4771BUVMxDDz1EZWUlH3zwPrFYjMLCQt555x02bNhAS0sL8+bNZ9u2bVy9epXvfGcLwWCAgoICcnLU2i0uLqakuGTKcS0sLLylTddZNxMSrerq6rTPDz74IFJKN+xj6dKlrm6moaHB1XXNmzcPgMceeyxtoHJzc1m3bp0btPvUU0+psciw2DihE1MhlRPTNA2v18uFCxcIBLL7faTC6/VSUlKSbJ90/jgK4cyOtKeUlGhCo6amiu9seYbzn13EH/CzatUa7lu6nO6eHprmzOWTY5+QSCR4ZssWSsrKkopbS7q+LUIIHnv8MeJjcYaHR4jFRqmqqsLn8/GDH/yA99//gKNHj+D1qti36uoqCgsL2bx5E8eOHSMvL5fi4lJy6uunfN5sqKiocCsXf9FRCxILv9+H0MYnowPSXB/GQ7B502a2bt3Kq1tfIdzTyzNPP41f91BRWsqJT48zEokwlkjw508/Y9sRbcdeK3m/ispKvvWtbxGNRunouIjP5ycYDLJq1SpOnWrn7be3k19QQHFREd/93vcQQrB29UOcO9tO/0CYeXPn8sgjG9F1h7sVrltAJu+YrBEg8OgeZs2aNWG4VOflDqqrK9GExEyjgkkZWbPp13/+T/8Jn50dQUdQUFDIj370I4ZHRmhbtIhIJEJubi4VFRU0NjUBsGzZMurq6tCEYMWKFXi9Xrq7b+LxeCgsKsI0LYLBIM899xxnz57FMAzy8vLQdY3Kykosy+L555/H6/USCAQoKSnhhRee58qVKzQ3N7N06VKEEGzc+KjLMLS1tVFVVZ3SP9kRjUYpLCxMI/pJpYxQ/ohZiNq0w3iydboz2f1ZnCUzdxbneOfBUglTZmjD7SAYDBKNRqeuGm23rbi4GNM0lTOqS7TS/6Ywq+qPvQACfh9PPfU4n52/gmEYzJ49m6LCErz+AM89/zyWGSG/IJ/a+jp8fh+Ykr6+Pnbv3IXffn4hBA2NjfzguefovdFNwjCoqlK747JlyyktLWNgYMCePBVYlsTr8/L88y/Q2dmJlJZrib0dlJaW0nnxzJdCtEzToLy8DF0XGFny62f0cgYki9raQEq6rl5j7erVLGpbhIbgh9//AQMDA/jycli1ejWtra2AwLSgv7+PzstXaGqaA6iN6rnnnuPkyZMMDw8RDCquoLq6mhdffJ7PPvsMKSX5+flIaSKExpNPPs758+cZHB6isqrC7mtH16Smg2NBTGuxcBTGKvi6sLBwQqLV3n6KFSvuRziuqraPmOoXdW3H5rph/XrGxsZcjtXr9bB69eq07CPKYildF4X6+npXL6VpGvfffz+mZbk+hOqWgqamJhoaGrCkRLdVLg8//LC7Nr1er2tMaG1tpbW1FSfeEmDRokXu9aqrq6murp6Si9q3bx9PPfVUmngIKYRrgvM/d+zhnZjwt2sBS4XjWT+ZeOgsUJ/PR1lZGZ2dnTQ1NSEchlyo3VOzxUXHopM0y6q/OpKcgJ/FC+fb30ogQV5OkKWL29A0O5bNVrB2XOrg3XffpfdmDy/++MfuFNc0jYrycirKlJOnMxk1TaehoTGtTxzFb1lZuS3GpNTXc9tmnz9JN1p2H5iJMcLhfuS0cxXfPiKRiCpZ5ThCOpyne0SG/iKj/Zqus+S+pSxdujTtjIdWrwbA0Ez3W8NM8Mv//Qt6bvYQys9l6bJlOOlii0pKWfuNb6gQnBQP/Lr6emrr63BqGTp2g8qaaiqqq3ALmpiOc7HdQM1ySUpqu50ulVIVDq6trR2XosYRdfLz8+nq6qKwsBDNjrBwA6RTREQhlMOsx5vOgWRKJkp/loy5zbY+tZQ2pH2vaQiZDDFKPSbV+jmVL2TmcY67UCrC4TBdXV2Ulk4tRqZiUvHwy0C6v8vnI4COnmvnzp088MADlNliWeqgOuKs1+tl06ZNvPra6/zlX/6VzQ7rGG7FHbUrSVTZL+ywmSTtsmyKZoC048SEQOIhkUhgWgksS01AUO4FoVCIpcuW0dbWxo2b3cgMy50QdqqZlD7QdZ2A348QwlVuOkG9Qgg8SuOrmqIpXU7mNTXhMIh2JgKUrufggf001NVmhK18MQgGg1y+fJlQKEQ8Hh9fsGFcjhPHodDmOpx+EalE3I7Isxep0hkKJBal5aXkFxbw+BMbaZzTZMsoQm1OthsBqM0mGZpjb5zqQ1IhLjTbcdXehKR7FAiJJS0ETqoXSPmVeDzOG9u28eILP5jQ72jLli188MEHxGIx6ufMt/NLpWq4bCLotFM6BM9ioj1eOuOd/JCUIixnzWVuiJlzR6Q8kXvljO/SDQZZWpJyLXUfwzDo6rrO/v37+Yu/+Evycm/dwfmuT02Tit/+9rfs3r2buro625qnlILf/OY3CYVCLtGSUhKJRPj1r1/Gsh0AFy5ciIWgp7eXaDTK0NAI0WiEaDTm7mxCqsKqXo9wC6Tm5OTi9fmUv43mUaEgQnFLOFyNZSVrHNoRc6ZpYZmmzfkACFW41d7qHfZYT9mhJcro4EQOxEYiKmWHVGk7nESDjsiSm5NLbm4uxcUlFBYVEg6HudTRgd/v58jhI/yP//n3NDfP/xLEQ5Of/OQn9Pf3s2DBAqqqZ6uMB4BpmHaQsYllxwgapoFpGDjWNDfbgTt+FqZlW+8kGCJuE2SlRNE1Hcsy0/QpKkTHJn4yGbblbD6O+CSEhq6roHQpnPhIdS1N+NU97aBrh8DpukcV09V1V+eVSCTY8e//l5GREf7f/+e/uWqLzL4eGxvjo48+4ujRo/SE+wkGA+SEclw6oGI1HXHJTphoOalwJtD9ZtKWzN9QXFuqejGVCDqbZCqxSSVQQgi76vnkzEaSKdFcgm9ZFlVVlRQUFPDE448RDCTF5lQSKCVIO6mhk8DSddK9l4hWT08P+/fvJxpVjne6rrJOrlu3jmAwCKSLoJFIhKNHjzIwMMCsWbNImJLBwQFGoqMMDAwSjUZIJBKuP5OQls2+J1noUCiE1+tVOjypCqRiJ1tL3eWkZWG6xWCTubhS2+MQHOc7J4eQ611tv08kElhSEo9G7eKw5ji9oGP9ysvNo7S0lJycHK5eu8rp0+1UVVXS1NjEt769Oas+8k7Dsiy6urp46aWXuH79Oh6Ph+rqavz+oM1B+ZSvkuZx/QAd7sqj63i8Xjw2l+mY6lOPQU8AoAkLr8eLR/dgWiZejxdN11KU/x57M/G4orvqN8fxNTku6pNpuxCo3y3Ty9DQoJuB1jQlpmFgmAaW6YZPk7DTJFdXVvD4YxtpapzcWGKaJidPnuTcuXNIKQkGg661WdqcvNpclS+Ws4B1PLe94ViWhUV2d4wkAU/2UaZoq+vp/mWO+sK1JWQ0S3M4NwFz58xh/rx5uIwr6cLj14poOXDyYTsLYDrOqmNjYyRM6SpYFRdk2YNh7xgqHwqWlSQmkNRPWKZdadq+rhOs6nBIpulwXJCNtXY4rsm2SkfnAkp3peaCsmrqbmbTpHVV5e5WFaUj0QgjIxFyc3Oora11o/a/LFy6dIn9+/czMDBgZy4N2Fk5PCrrp5N6xyZKwuaaPB7dzd7hEi1dB2HrYTRH8Y073paUeHSPy/k4Km1NaFiWlr6ohLN5ONkxpc3tWiQMA7DH3RQMj4y4WWsNU2KaBkbCUJyL/X0ikcAwDFY/9CDVVZXqFpMQF5eTTiEMUqYn+XNEPYdzl5bi+rUJWaqpIYWd+daed6lNTFWHZN5BCMYd675x1BUZ09sRNmXK+4lcmxXRSm7SXwuidTtwdCIOMlWHSkGfLqOPv0j6x8kyPN4JaKm0LQudy7YYMn/7suEsbIcIqcbYv7kiUfo50+xud4fOdm7qeE4042+1O1xX5BQOIyli4Sq1x7V7mn1vSpl173KdWplYCvy8yOR8Mn/L/D1T05VtbKY6xoGGTbQnIFr3XGGL20W2SZS2GYvkZJn4Ine2TVNCTPDe+WoSncNXQbCA7JyvSPszbeKRqfie7NzpHHOrcDVKqbqztPef70baFOd/kSM41bXHberTuGambHG77Z8hWin4apbxDBzcbv9/VaLC7bZ3usTsP+p8zNwsboVgOed/nmf7Ausdz2AG9zYmE3Fm8MVhhmjNYAa3iRmi9dVgRjy8g7hTMvvnve8MZnAvY4Zo3UHMEK0ZzOCLxwzRuoP4qojG151Yfd2f/6vCF93v2UKfvvLYw3sNM0Trq8HX/fm/KnwZRCsbZhTxM5jBDO4qzBCtGcxgBncVZojWDGYwg7sKM0RrBjOYwV2FGaJnz3M2AAAAFklEQVQ1gxnM4K7CDNGawQxmcFfh/wek7pNUG99GgQAAAABJRU5ErkJggg==;movable=0;resizable=0;rotatable=0;deletable=0;editable=0;connectable=0;" vertex="1" parent="1">
                    <mxGeometry x="-94" y="-53" width="536.4" height="417" as="geometry"/>
                </mxCell>
                <mxCell id="3" value="数据类型" style="text;html=1;align=center;verticalAlign=middle;resizable=0;points=[];autosize=1;strokeColor=none;fillColor=none;movable=0;rotatable=0;deletable=0;editable=0;connectable=0;" vertex="1" parent="1">
                    <mxGeometry x="40" y="-49" width="66" height="26" as="geometry"/>
                </mxCell>
            </root>
        </mxGraphModel>
    </diagram>
</mxfile>